<svg width="77.000000" height="95.000000" viewBox="0 0 77 95" fill="none" xmlns="http://www.w3.org/2000/svg" xmlns:xlink="http://www.w3.org/1999/xlink">
	<desc>
			Created with Pixso.
	</desc>
	<defs>
		<clipPath id="clip5_1505">
			<rect id="Frame" width="55.000000" height="48.000000" transform="translate(19.000000 45.000000)" fill="white" fill-opacity="0"/>
		</clipPath>
		<clipPath id="clip5_1599">
			<rect id="Frame" width="61.000000" height="46.000000" transform="translate(16.000000 0.000000)" fill="white" fill-opacity="0"/>
		</clipPath>
	</defs>
	<circle id="Ellipse 9" cx="37.000000" cy="58.000000" r="37.000000" fill="#46A358" fill-opacity="0.130000"/>
	<rect id="Frame" width="55.000000" height="48.000000" transform="translate(19.000000 45.000000)" fill="#FFFFFF" fill-opacity="0"/>
	<g clip-path="url(#clip5_1505)">
		<path id="Vector" d="M28.1293 46.3569C40.7023 48.0205 53.3918 48.282 66.0231 47.137C66.8795 47.0603 66.8885 45.7078 66.0231 45.7844C53.3918 46.9294 40.7023 46.668 28.1293 45.0044C27.2773 44.8918 27.2818 46.2488 28.1293 46.3569Z" fill="#727272" fill-opacity="1.000000" fill-rule="nonzero"/>
		<path id="Vector" d="M31.0304 92.0308C36.4649 92.7251 41.9353 93.0632 47.4147 92.9866C52.2349 92.9189 57.925 93.1309 62.4448 91.2236C63.2296 90.8901 62.8843 89.5828 62.0861 89.9209C57.4497 91.8774 51.5085 91.6116 46.5493 91.6431C41.3569 91.6792 36.1779 91.3364 31.0259 90.6782C30.174 90.5701 30.1784 91.9226 31.0304 92.0308Z" fill="#727272" fill-opacity="1.000000" fill-rule="nonzero"/>
		<path id="Vector" d="M27.6047 45.3154C21.3317 51.1672 18.4081 59.8909 19.0986 68.3979C19.4529 72.7937 20.6904 77.0676 22.5513 81.053C24.2462 84.6865 26.7438 89.8938 30.4923 91.7827C31.2635 92.1704 31.9451 91.0073 31.1694 90.615C27.6809 88.8567 25.3089 83.7939 23.7126 80.3721C21.8563 76.3823 20.6411 72.0498 20.39 67.6453C19.9416 59.7061 22.7127 51.7219 28.5598 46.2712C29.1965 45.6807 28.2414 44.7249 27.6047 45.3154Z" fill="#727272" fill-opacity="1.000000" fill-rule="nonzero"/>
		<path id="Vector" d="M65.5478 46.9519C72.1661 51.1221 72.7893 60.1162 72.6279 67.1987C72.4485 75.0974 71.4755 87.6123 62.0862 89.9207C61.2477 90.1279 61.6019 91.4309 62.4449 91.2236C72.2468 88.8162 73.6547 76.3958 73.9507 68.0374C74.2242 60.2153 73.5337 50.3872 66.2249 45.7842C65.4895 45.3245 64.8169 46.4919 65.5478 46.9519Z" fill="#727272" fill-opacity="1.000000" fill-rule="nonzero"/>
		<path id="Vector" d="M32.5773 46.3657C27.6405 51.7083 25.4613 60.6301 26.2953 67.7847C26.7796 71.946 28.0889 76.0757 29.062 80.1375C30.0394 84.2085 31.0483 88.248 33.2634 91.8411C33.7208 92.5806 34.8821 91.8997 34.4247 91.1604C32.3442 87.7881 31.3756 84.0193 30.4564 80.2007C29.5686 76.522 28.5328 72.8386 27.8468 69.1191C26.5464 62.0366 28.5822 52.6775 33.528 47.3215C34.1154 46.6814 33.1647 45.7256 32.5773 46.3657Z" fill="#727272" fill-opacity="1.000000" fill-rule="nonzero"/>
		<path id="Vector" d="M39.2405 46.9294C35.5637 53.4395 33.6311 60.833 33.7297 68.3259C33.7791 71.9236 34.2902 75.5256 35.2677 78.988C36.4828 83.2844 38.3303 87.3601 39.1374 91.7737C39.2943 92.6301 40.5901 92.2651 40.4332 91.4131C39.7292 87.5493 38.2361 83.9517 37.0479 80.2278C35.8954 76.6121 35.205 72.8838 35.0884 69.0833C34.8552 61.5679 36.7115 54.1428 40.4019 47.6101C40.8323 46.8528 39.671 46.1721 39.2405 46.9294Z" fill="#727272" fill-opacity="1.000000" fill-rule="nonzero"/>
		<path id="Vector" d="M43.2043 48.2234C44.4822 55.7344 42.9308 63.2585 43.0608 70.801C43.1191 74.2454 43.8859 77.4509 44.3342 80.8411C44.8006 84.3621 44.0024 87.9822 43.5675 91.4761C43.4599 92.3372 44.8051 92.3281 44.9127 91.4761C45.3521 87.9507 46.1458 84.3035 45.6794 80.751C45.2041 77.1172 44.4015 73.6729 44.397 69.9761C44.3881 62.5779 45.7512 55.2339 44.5001 47.8672C44.3522 47.0107 43.0563 47.3713 43.2043 48.2234Z" fill="#727272" fill-opacity="1.000000" fill-rule="nonzero"/>
		<path id="Vector" d="M48.2487 47.5967C50.6118 54.3818 50.8987 61.541 51.1364 68.6597C51.3965 76.3914 51.0109 84.0015 49.576 91.6113C49.4146 92.4634 50.7104 92.8286 50.8718 91.9722C52.3291 84.2449 52.7462 76.5085 52.4816 68.6597C52.2394 61.4238 51.9435 54.1294 49.5446 47.2361C49.2621 46.4246 47.9617 46.7764 48.2487 47.5967Z" fill="#727272" fill-opacity="1.000000" fill-rule="nonzero"/>
		<path id="Vector" d="M53.9075 47.6284C54.4052 49.1567 55.4813 50.1755 56.3064 51.519C57.248 53.0518 57.7637 54.7876 58.0417 56.5549C58.647 60.4138 58.36 64.4534 58.3511 68.344C58.3421 72.5774 58.6649 77.0542 57.5753 81.1882C56.6158 84.8174 54.4142 87.9463 53.6788 91.6521C53.5084 92.5042 54.8043 92.8647 54.9747 92.0127C55.7639 88.0454 58.2031 84.6868 59.064 80.7373C59.9473 76.698 59.6873 72.4512 59.6962 68.344C59.7052 64.5481 59.9339 60.6665 59.4362 56.8931C59.2164 55.2249 58.8398 53.575 58.1224 52.051C57.3242 50.3513 55.7863 49.0576 55.2078 47.2722C54.9343 46.4473 53.634 46.7988 53.9075 47.6284Z" fill="#727272" fill-opacity="1.000000" fill-rule="nonzero"/>
		<path id="Vector" d="M60.4495 47.4163C63.1219 49.9409 64.4088 53.9714 65.3729 57.4519C66.3773 61.0764 66.041 64.9446 65.8168 68.655C65.3639 76.1838 64.0994 83.7039 60.5078 90.4121C60.0953 91.1785 61.2567 91.8638 61.6691 91.0928C65.4984 83.9382 66.7764 75.8953 67.2023 67.8706C67.4176 63.8311 67.5924 59.8862 66.3325 55.9956C65.2384 52.6189 64.0322 48.9492 61.4001 46.4561C60.7723 45.8655 59.8173 46.8213 60.4495 47.4163Z" fill="#727272" fill-opacity="1.000000" fill-rule="nonzero"/>
		<path id="Vector" d="M32.4697 50.7976C32.3307 51.1538 32.1783 51.5054 32.0124 51.8525C31.8016 52.29 32.0482 52.8896 32.5953 52.8716C32.9854 52.8579 33.2948 52.6821 33.5728 52.4163C33.6625 52.3306 33.7521 52.2402 33.8373 52.1548C33.9495 52.042 33.8015 52.2224 33.8867 52.1187C33.8687 52.1458 33.7745 52.1367 33.8597 52.1458C33.6445 51.8616 33.4293 51.573 33.2096 51.2891C33.1513 51.5911 33.0885 51.8933 33.0302 52.1997C32.9585 52.5559 33.1334 52.9302 33.501 53.0337C33.8329 53.124 34.2589 52.9211 34.3306 52.5605C34.3889 52.2583 34.4517 51.9563 34.5099 51.6497C34.5996 51.1899 34.3171 50.8384 33.8597 50.7932C33.4876 50.7571 33.1513 50.9556 32.8867 51.199C32.7926 51.2847 32.7119 51.3748 32.6177 51.4604C32.5863 51.4875 32.5594 51.5144 32.528 51.5415C32.5415 51.5281 32.5549 51.519 32.5684 51.5054C32.5011 51.5415 32.5011 51.5461 32.5773 51.5144C32.5011 51.5325 32.5056 51.5371 32.5908 51.5144C32.7836 51.8525 32.9764 52.1907 33.1737 52.5334C33.3889 52.0825 33.5862 51.6228 33.7656 51.1584C33.8956 50.8157 33.6221 50.4146 33.2948 50.3242C32.9182 50.2207 32.6042 50.4551 32.4697 50.7976Z" fill="#727272" fill-opacity="1.000000" fill-rule="nonzero"/>
		<path id="Vector" d="M29.1382 58.8901C29.0754 59.2688 29.0126 59.6475 28.9499 60.0217C28.9006 60.3237 28.9813 60.6213 29.2593 60.7837C29.5059 60.928 29.8781 60.9009 30.0754 60.6799C30.2054 60.5312 30.3354 60.3823 30.4655 60.2336C30.5507 60.1345 30.6717 59.9497 30.7748 59.8955C30.6627 59.927 30.5507 59.9587 30.4341 59.9856C30.4565 59.9812 30.4834 59.9812 30.5058 59.9766C30.3937 59.9451 30.2816 59.9136 30.165 59.8865C30.183 59.8999 30.2009 59.9136 30.2188 59.927C30.1068 59.7332 29.9946 59.5393 29.887 59.3411C29.9229 59.7288 29.8153 60.1616 29.7704 60.5537C29.7076 61.1172 30.3758 61.3247 30.7838 61.1399C31.3129 60.8918 31.6672 60.4365 31.8555 59.8911C31.4788 59.9902 31.1066 60.0894 30.73 60.1885C30.7166 60.1028 30.7031 60.0173 30.6896 59.9316C30.4699 60.7747 31.7703 61.1353 31.9855 60.2922C32.0842 59.9089 31.9945 59.4897 31.6806 59.2329C31.277 58.9036 30.7345 59.021 30.5551 59.5303C30.4744 59.7559 30.3085 59.873 30.1022 59.9722C30.4385 60.166 30.7748 60.3599 31.1156 60.5583C31.1829 59.9541 31.5057 58.8811 30.6807 58.6511C29.9857 58.4573 29.4969 59.2869 29.1203 59.7241C29.4969 59.9451 29.8691 60.1616 30.2457 60.3823C30.3085 60.0037 30.3713 59.625 30.4341 59.2507C30.4924 58.8901 30.3399 58.5205 29.9633 58.4167C29.6449 58.3311 29.1965 58.5295 29.1382 58.8901Z" fill="#727272" fill-opacity="1.000000" fill-rule="nonzero"/>
		<path id="Vector" d="M28.5598 67.0364C28.6046 67.5684 28.6539 68.1003 28.6987 68.6279C28.766 69.3809 29.7749 69.5566 30.0215 68.8081C30.156 68.3936 30.3444 68.0193 30.582 67.6497C30.174 67.5955 29.7614 67.5415 29.3534 67.4873C29.5103 67.8794 29.6179 68.2808 29.6763 68.7046C29.7435 69.1824 30.3219 69.2637 30.6627 69.1104C30.8331 69.0337 30.9721 68.8848 31.0618 68.7227C31.1021 68.6504 31.1335 68.5647 31.1604 68.488C31.1739 68.4475 31.1829 68.407 31.1963 68.3665C31.2187 68.2988 31.2097 68.3032 31.1783 68.3799C31.0797 68.4385 30.9811 68.4971 30.8824 68.5557C30.9048 68.5466 30.9318 68.5422 30.9542 68.5332C30.8331 68.5332 30.7165 68.5332 30.5955 68.5332C30.5865 68.5288 30.5775 68.5242 30.573 68.5151C30.4923 68.4341 30.4116 68.3528 30.3309 68.2717C30.3444 68.2898 30.3533 68.3079 30.3668 68.3259C30.3444 68.1499 30.3219 67.9788 30.2995 67.803C30.295 67.8254 30.295 67.8479 30.2905 67.866C30.2412 68.2266 30.3757 68.5918 30.7614 68.7C31.0753 68.7856 31.5416 68.5918 31.5909 68.2266C31.6312 67.9336 31.6088 67.6677 31.3936 67.4468C31.2142 67.2664 30.9407 67.1807 30.6896 67.2078C30.4296 67.2393 30.2009 67.3926 30.0618 67.6135C30.0035 67.7083 29.9229 67.8389 29.9184 67.947C29.9139 68.105 29.8466 67.9922 29.9901 67.9292C30.3174 68.0645 30.6492 68.1997 30.9766 68.335C30.9183 67.9155 30.8107 67.5144 30.6537 67.1177C30.4385 66.5857 29.757 66.4324 29.4251 66.9553C29.1292 67.4197 28.9005 67.9155 28.7301 68.4341C29.1696 68.4927 29.609 68.5557 30.0529 68.6143C30.0081 68.0823 29.9587 67.5503 29.9139 67.0229C29.8825 66.6577 29.6269 66.3467 29.2413 66.3467C28.8961 66.3601 28.5284 66.6714 28.5598 67.0364Z" fill="#727272" fill-opacity="1.000000" fill-rule="nonzero"/>
		<path id="Vector" d="M30.1785 76.5762C30.2233 77.3562 30.6134 78.0369 31.2905 78.4336C31.7388 78.6907 32.2949 78.3616 32.3038 77.8474C32.3083 77.4507 32.398 77.0857 32.5505 76.7205C32.1738 76.8196 31.8016 76.9187 31.425 77.0181C31.6088 77.2434 31.8061 77.4417 32.0258 77.6267C32.3845 77.9287 33.0392 77.8701 33.1513 77.3291C33.1782 77.2073 33.2096 77.1038 33.2499 76.991C32.8733 77.0901 32.5012 77.1892 32.1245 77.2886C32.1649 77.2659 32.1873 77.293 32.1828 77.3652C32.3262 77.7034 32.8195 77.7754 33.102 77.6086C33.4473 77.4058 33.4876 77.0225 33.3441 76.6843C33.2858 76.5491 33.1917 76.4275 33.0751 76.3328C32.6581 76.0037 32.1469 76.1252 31.9496 76.6304C31.9048 76.7429 31.8734 76.8511 31.851 76.9685C32.2276 76.8691 32.5998 76.77 32.9764 76.6709C32.7567 76.4861 32.5594 76.2832 32.3756 76.0623C32.0168 75.6204 31.425 75.9495 31.2501 76.3599C31.0528 76.8333 30.9631 77.3335 30.9542 77.8474C31.2905 77.6536 31.6268 77.4597 31.9675 77.2615C31.7075 77.1125 31.5371 76.8782 31.5192 76.5718C31.4743 75.7151 30.1292 75.7061 30.1785 76.5762Z" fill="#727272" fill-opacity="1.000000" fill-rule="nonzero"/>
		<path id="Vector" d="M32.9496 85.8499C33.1065 86.2556 33.2948 86.6296 33.5504 86.9858C33.9495 87.5359 34.7432 87.333 34.8059 86.6433C34.8104 86.6028 34.8821 86.1023 34.8552 86.0798C34.6624 86.2014 34.4741 86.3232 34.2813 86.4448C34.3261 86.5081 34.3665 86.5667 34.4158 86.6252C34.5862 86.8416 34.7969 87.0264 35.0704 87.103C35.2812 87.1572 35.5278 87.1301 35.7117 87.0129C35.8327 86.9319 35.9179 86.8372 35.9807 86.7063C36.0031 86.6523 36.0255 86.5981 36.048 86.5442C36.1511 86.2195 35.9538 86.1653 35.4606 86.3818C35.7296 87.2024 37.03 86.8506 36.7564 86.021C36.5681 85.4531 36.0211 85.0835 35.4247 85.3088C35.1826 85.4036 34.9718 85.5837 34.8552 85.8181C34.8193 85.8904 34.6893 86.2014 34.7342 86.2915C34.9943 86.1428 35.2498 85.9895 35.5099 85.8408C35.474 85.7957 35.4382 85.7551 35.4067 85.71C35.1915 85.2727 34.5682 85.0247 34.1199 85.187C33.4876 85.4126 33.5145 86.0886 33.4652 86.6477C33.8822 86.5352 34.2992 86.4224 34.7207 86.3052C34.5369 86.0527 34.371 85.7866 34.2544 85.4937C33.9315 84.6912 32.6312 85.0383 32.9496 85.8499Z" fill="#727272" fill-opacity="1.000000" fill-rule="nonzero"/>
		<path id="Vector" d="M40.1373 50.9824C39.6531 51.3477 39.2495 51.7805 38.985 52.335C38.6397 53.0562 39.4423 53.6243 40.0432 53.1555C40.1866 53.0427 40.3301 52.9299 40.4736 52.8174C40.5364 52.7678 40.5992 52.7183 40.6664 52.6685C40.6978 52.6416 40.7292 52.6189 40.7606 52.5918C40.8727 52.5107 40.8144 52.5242 40.5857 52.6279C40.4736 52.5964 40.3615 52.5649 40.2449 52.5378C40.2584 52.5469 40.2719 52.5559 40.2853 52.5649C40.2046 52.4836 40.1239 52.4026 40.0432 52.3215C40.0297 52.2627 40.0118 52.2087 39.9984 52.1501C40.0028 52.0869 40.0028 52.0779 39.9894 52.1321C39.9579 52.1545 39.949 52.3079 39.949 52.3303C39.9176 52.5378 39.9355 52.7407 40.0432 52.9299C40.1418 53.1013 40.3167 53.2546 40.5095 53.3042C40.5902 53.3267 40.6934 53.3357 40.7785 53.3357C40.8593 53.3357 40.931 53.3223 41.0027 53.2952C41.0969 53.2681 41.0655 53.259 40.9041 53.2681C40.8054 53.2095 40.7068 53.1509 40.6082 53.0923C40.6216 53.106 40.6351 53.1194 40.6485 53.1328C40.5902 53.0337 40.5319 52.9346 40.4736 52.8354C40.4781 52.8489 40.4826 52.8669 40.4871 52.8804C40.5095 52.7046 40.5319 52.5332 40.5543 52.3574C40.5453 52.3711 40.5409 52.3845 40.5319 52.3979C40.1239 53.1646 41.2852 53.8499 41.6932 53.0789C41.8681 52.7542 41.8278 52.3892 41.5543 52.1321C41.4108 51.9968 41.218 51.9158 41.0207 51.9111C40.9086 51.9067 40.7785 51.9788 40.6799 51.9697C40.792 52.0012 40.9041 52.033 41.0207 52.0598C41.0027 52.0464 40.9848 52.033 40.9713 52.0239C41.0521 52.105 41.1328 52.1863 41.2135 52.2673C41.2045 52.2493 41.1956 52.2312 41.1866 52.2131C41.218 52.3259 41.2493 52.4387 41.2762 52.5559C41.2673 52.4702 41.2808 52.5154 41.3121 52.3892C41.348 52.2312 41.3525 52.0598 41.3166 51.8977C41.2404 51.573 40.9982 51.3386 40.6754 51.28C40.3391 51.2168 40.1104 51.3928 39.8549 51.5911C39.5992 51.7896 39.3437 51.9922 39.0881 52.1907C39.4423 52.4656 39.7921 52.7361 40.1463 53.0112C40.3077 52.6775 40.514 52.3711 40.8144 52.1455C41.1058 51.9292 41.2538 51.5596 41.0565 51.2214C40.8906 50.9373 40.4333 50.7661 40.1373 50.9824Z" fill="#727272" fill-opacity="1.000000" fill-rule="nonzero"/>
		<path id="Vector" d="M37.5052 58.5925C37.3931 59.1335 37.2855 59.6746 37.1733 60.22C37.0344 60.9097 37.7787 61.3064 38.2988 60.8782C38.4513 60.752 38.5858 60.5942 38.6844 60.4229C38.7517 60.3057 38.8324 60.0667 38.8683 60.0081C38.7876 60.0891 38.7068 60.1704 38.6262 60.2515C38.6486 60.238 38.6665 60.2244 38.6889 60.2065C38.5768 60.238 38.4647 60.2695 38.3481 60.2966C38.3751 60.292 38.402 60.292 38.4289 60.2876C38.3168 60.2561 38.2047 60.2244 38.0881 60.1975C37.9805 60.1477 37.976 59.9719 38.0074 60.2019C38.0164 60.2605 38.0298 60.3101 38.0477 60.3643C38.1105 60.5671 38.2226 60.7473 38.393 60.8738C38.5499 60.991 38.7338 61.054 38.9311 61.0496C39.0521 61.0449 39.1642 61.0134 39.2719 60.9592C39.3301 60.9368 39.3795 60.9053 39.4243 60.8647C39.5409 60.7834 39.5095 60.7881 39.3346 60.8691C39.2225 60.8376 39.1104 60.8062 38.9938 60.7791C39.0118 60.7881 39.0162 60.7971 39.0297 60.833C39.3167 61.6492 40.617 61.2974 40.3256 60.4724C40.2 60.1162 40.0162 59.7871 39.6709 59.6113C39.4916 59.5166 39.2673 59.4895 39.0701 59.5347C38.8728 59.5798 38.7562 59.7104 38.5858 59.7917C38.6979 59.76 38.81 59.7285 38.9266 59.7014C38.9042 59.7014 38.8773 59.7014 38.8549 59.7014C38.9669 59.7332 39.079 59.7646 39.1956 59.7917C39.3167 60.0037 39.3525 60.0352 39.3032 59.8862C39.2943 59.8276 39.2853 59.769 39.2763 59.7104C39.2449 59.5933 39.1956 59.4717 39.1328 59.3723C38.9669 59.1108 38.6934 58.9397 38.384 58.9441C38.0791 58.9487 37.8011 59.1245 37.6577 59.3904C37.5366 59.616 37.5455 59.751 37.3393 59.9224C37.7159 60.1433 38.0881 60.3596 38.4647 60.5806C38.5768 60.0396 38.6844 59.4985 38.7966 58.9575C38.9759 58.1011 37.6801 57.7405 37.5052 58.5925Z" fill="#727272" fill-opacity="1.000000" fill-rule="nonzero"/>
		<path id="Vector" d="M36.985 65.5039C36.8461 66.2297 36.7564 66.9602 36.7339 67.6951C36.7161 68.209 37.3169 68.5334 37.7473 68.281C37.9446 68.1638 38.0881 68.0061 38.1957 67.8032C38.2361 67.7266 38.3527 67.5508 38.3303 67.4832C38.3257 67.4741 38.2854 67.5327 38.3033 67.5237C38.1913 67.5552 38.0792 67.5867 37.9626 67.6138C37.9536 67.6184 37.9401 67.6184 37.9312 67.6228C37.8505 67.5417 37.7698 67.4604 37.689 67.3794C37.7653 67.4785 37.7563 67.4695 37.7653 67.5732C37.8146 68.1277 38.4782 68.4976 38.9131 68.051C38.9625 67.9971 39.0118 67.9475 39.0656 67.8979C38.9714 67.9429 38.8728 67.9338 38.7786 67.8799C38.7203 67.7805 38.662 67.6814 38.6038 67.5823C38.6127 67.6094 38.6217 67.6365 38.6352 67.6633C38.7607 68.0061 39.0925 68.2405 39.4647 68.1367C39.792 68.0466 40.061 67.6499 39.9355 67.3027C39.5858 66.3469 38.5679 66.4688 37.9626 67.0955C38.3437 67.2532 38.7293 67.4155 39.1105 67.5732C39.0566 66.9194 38.7338 66.2117 37.9626 66.2612C37.6487 66.2793 37.3707 66.4641 37.2048 66.7302C37.1465 66.825 37.1061 66.9331 37.0613 67.0369C37.012 67.1494 36.9268 67.1899 37.0658 67.1089C37.4021 67.3027 37.7384 67.4966 38.0792 67.6951C38.0971 67.0774 38.1644 66.4688 38.2809 65.8601C38.4468 65.0125 37.151 64.6519 36.985 65.5039Z" fill="#727272" fill-opacity="1.000000" fill-rule="nonzero"/>
		<path id="Vector" d="M37.6532 73.2266C37.8056 73.8306 37.9895 74.4211 38.2047 75.0027C38.3796 75.4761 38.9401 75.6746 39.3302 75.3003C39.5005 75.1335 39.6171 74.9397 39.6754 74.7053C39.6979 74.6106 39.7158 74.4978 39.7203 74.4031C39.7337 74.1145 39.7023 74.3535 39.7292 74.3401C39.6171 74.3716 39.5051 74.4031 39.3885 74.4302C39.4199 74.4302 39.4468 74.4258 39.4781 74.4258C39.366 74.394 39.254 74.3625 39.1374 74.3354C39.0477 74.2949 39.0746 74.2544 39.1463 74.3806C39.1822 74.4436 39.2136 74.4978 39.2584 74.5564C39.3974 74.7368 39.5678 74.8584 39.7965 74.8901C39.9983 74.917 40.1911 74.8674 40.3615 74.7502C40.4556 74.6826 40.5408 74.606 40.6036 74.5068C40.6305 74.4526 40.6574 74.3987 40.6798 74.3445C40.7695 74.1687 40.6933 74.2139 40.4512 74.4844C40.3301 74.4844 40.2135 74.4844 40.0925 74.4844C40.0386 74.4392 39.9893 74.3896 39.9355 74.3445C39.9041 74.2319 39.8727 74.1191 39.8458 74.002C39.8458 74.0291 39.8458 74.0559 39.8458 74.083C39.8324 74.9531 41.1776 74.9531 41.191 74.083C41.2 73.6277 40.8861 73.2715 40.4512 73.1814C40.218 73.1318 39.9848 73.1814 39.792 73.321C39.6979 73.3887 39.6216 73.4653 39.5588 73.5601C39.5454 73.5872 39.5319 73.6187 39.514 73.6458C39.3974 73.8711 39.4288 73.8667 39.6127 73.6323C39.7247 73.6006 39.8369 73.5691 39.9534 73.542C39.931 73.5466 39.9086 73.5466 39.8862 73.551C39.9983 73.5825 40.1104 73.6143 40.2269 73.6414C40.4197 73.7358 40.3211 73.7043 40.2494 73.5781C40.1956 73.479 40.1238 73.3843 40.0431 73.312C39.7875 73.0823 39.4512 73.0237 39.1329 73.1362C38.8773 73.2266 38.6845 73.4248 38.5544 73.6548C38.4827 73.7854 38.4468 73.9163 38.4199 74.0605C38.4065 74.1235 38.4199 74.304 38.3796 74.3445C38.7562 74.4436 39.1284 74.543 39.5051 74.6421C39.2898 74.0605 39.106 73.4653 38.9535 72.8657C38.7338 72.0273 37.4379 72.3833 37.6532 73.2266Z" fill="#727272" fill-opacity="1.000000" fill-rule="nonzero"/>
		<path id="Vector" d="M38.3303 79.687C38.5724 80.4038 38.8818 81.0935 39.2629 81.7427C39.5364 82.207 40.1417 82.1528 40.4243 81.7427C40.5005 81.6299 40.5543 81.5127 40.5901 81.3821C40.5946 81.3416 40.5991 81.3054 40.6081 81.2649C40.6798 81.0034 40.6171 81.0125 40.4108 81.2964C40.2897 81.2964 40.1732 81.2964 40.0521 81.2964C39.8638 81.2378 39.9489 81.2512 40.0476 81.3594C40.1193 81.436 40.209 81.5173 40.3032 81.5713C40.496 81.6797 40.7247 81.7202 40.9444 81.7021C41.4466 81.666 41.7919 81.3325 41.9578 80.8772C42.2582 80.061 40.9578 79.7048 40.6619 80.5164C40.7471 80.291 40.9578 80.4172 40.9219 80.3091C40.8951 80.2324 40.7381 80.1287 40.6664 80.0881C40.4467 79.9619 40.1821 79.9348 39.9445 80.0161C39.7247 80.0881 39.5499 80.2549 39.4377 80.4578C39.3391 80.6382 39.366 80.9087 39.2584 81.062C39.644 81.062 40.0341 81.062 40.4197 81.062C40.0924 80.5073 39.8279 79.9395 39.6216 79.3308C39.3526 78.5103 38.0522 78.8618 38.3303 79.687Z" fill="#727272" fill-opacity="1.000000" fill-rule="nonzero"/>
		<path id="Vector" d="M40.1014 87.4006C40.1059 87.7747 40.1597 88.1489 40.2763 88.5005C40.3615 88.7576 40.5633 88.9468 40.8368 88.9829C41.0834 89.0144 41.3928 88.9019 41.5049 88.6584C41.5811 88.4961 41.6573 88.3337 41.7336 88.176C41.7695 88.0994 41.8053 88.0271 41.8367 87.9504C41.8547 87.9146 41.8726 87.874 41.8905 87.8379C41.7919 87.8965 41.6932 87.9551 41.5946 88.0137C41.608 88.0093 41.626 88.0002 41.6394 87.9956C41.5184 87.9956 41.4018 87.9956 41.2807 87.9956C41.2583 87.9866 41.2314 87.9731 41.209 87.9641C41.1282 87.8828 41.0475 87.8018 40.9669 87.7207C40.8996 87.6079 40.9623 87.7026 40.9893 87.7793C41.0117 87.8513 41.0386 87.9189 41.061 87.9912C41.1103 88.1309 41.1596 88.2751 41.2045 88.4148C41.321 88.762 41.6663 88.9875 42.034 88.8882C42.3658 88.7981 42.6214 88.4014 42.5048 88.0542C42.312 87.4951 42.1506 86.5754 41.3704 86.6792C40.7651 86.7603 40.5633 87.4998 40.3391 87.9775C40.7471 88.0317 41.1597 88.0857 41.5677 88.1399C41.4825 87.874 41.4421 87.6575 41.4376 87.396C41.4332 87.0444 41.1328 86.7017 40.7651 86.7197C40.4108 86.7378 40.0969 87.0217 40.1014 87.4006Z" fill="#727272" fill-opacity="1.000000" fill-rule="nonzero"/>
		<path id="Vector" d="M46.2803 88.2212C46.2444 88.5276 46.2086 88.8389 46.1727 89.1453C46.1368 89.4338 46.4058 89.7268 46.6659 89.7991C46.9708 89.8848 47.2533 89.7358 47.4237 89.488C47.5447 89.3123 47.6658 89.1409 47.7869 88.9651C47.8407 88.8838 47.899 88.8071 47.9528 88.7261C47.9752 88.6946 47.9976 88.6628 48.02 88.6313C48.1187 88.4961 48.1052 88.5051 47.9842 88.6584C47.8721 88.6899 47.76 88.7214 47.6434 88.7485C47.6658 88.7485 47.6838 88.7485 47.7062 88.7485C47.5941 88.717 47.482 88.6855 47.3654 88.6584C47.2309 88.4241 47.186 88.3789 47.2309 88.5232C47.2443 88.5774 47.2533 88.636 47.2667 88.6899C47.2892 88.8027 47.3116 88.9109 47.3385 89.0237C47.3878 89.2581 47.4102 89.533 47.5313 89.7449C47.6479 89.9434 47.8407 90.1145 48.0649 90.1777C48.4102 90.2725 48.6926 90.0967 48.8944 89.8262C49.1141 89.533 48.9393 89.0686 48.6523 88.9019C48.307 88.699 47.9528 88.8523 47.7331 89.1453C47.7241 89.1589 47.7151 89.1724 47.7062 89.1814C47.899 89.0686 48.0918 88.9561 48.2891 88.8479C48.2756 88.8479 48.2622 88.8523 48.2487 88.8523C48.3608 88.8838 48.4729 88.9155 48.5895 88.9424C48.7061 89.001 48.7778 89.3301 48.7106 88.9966C48.6926 88.9019 48.6702 88.8118 48.6523 88.717C48.6164 88.5503 48.585 88.3835 48.5491 88.2166C48.4684 87.865 48.2577 87.5222 47.89 87.4187C47.482 87.3059 47.1591 87.5403 46.9305 87.8469C46.7018 88.158 46.4866 88.478 46.2668 88.7937C46.6838 88.9065 47.1008 89.019 47.5223 89.1362C47.5582 88.8298 47.5941 88.5186 47.6299 88.2122C47.6703 87.8469 47.2892 87.5359 46.9573 87.5359C46.5583 87.5449 46.3251 87.8604 46.2803 88.2212Z" fill="#727272" fill-opacity="1.000000" fill-rule="nonzero"/>
		<path id="Vector" d="M46.926 75.8728C46.7601 76.5942 46.6793 77.3335 46.6928 78.073C46.7018 78.7087 47.6344 79.0378 47.9483 78.4155C48.0828 78.145 48.2173 77.8792 48.3519 77.6086C48.4505 77.4102 48.5222 77.1624 48.7016 77.0225C48.603 77.0811 48.5043 77.1396 48.4056 77.1982C48.4056 77.1938 48.4056 77.1895 48.4102 77.1848C48.1949 77.0181 47.9797 76.8557 47.7599 76.689C47.8452 77.009 47.9304 77.3291 48.0156 77.6492C48.1232 78.0505 48.6388 78.2939 49.002 78.0549C49.0648 78.0144 49.1276 77.9692 49.1904 77.9287C49.9078 77.4509 49.2352 76.2786 48.5132 76.761C48.4505 76.8015 48.3877 76.8467 48.325 76.8872C48.6523 77.0225 48.9841 77.1577 49.3114 77.293C49.2262 76.9729 49.1411 76.6528 49.0558 76.3328C48.9796 76.0488 48.7016 75.8323 48.4056 75.8369C47.4595 75.855 47.1367 77.0361 46.7869 77.7393C47.204 77.8521 47.621 77.9648 48.0425 78.082C48.0335 77.4553 48.0873 76.8513 48.2263 76.238C48.4146 75.386 47.1188 75.0254 46.926 75.8728Z" fill="#727272" fill-opacity="1.000000" fill-rule="nonzero"/>
		<path id="Vector" d="M45.6436 65.7563C45.6749 66.2883 45.7018 66.8157 45.7332 67.3477C45.7691 68.0149 46.621 68.272 46.9887 67.6904C47.2488 67.2756 47.5089 66.8652 47.7689 66.4507C47.3833 66.4507 46.9932 66.4507 46.6076 66.4507C46.7017 66.6128 46.76 66.7617 46.769 66.9509C46.8004 67.5461 47.4775 67.8301 47.9169 67.429C48.2577 67.1223 48.4774 66.7527 48.6433 66.3242C48.316 66.4595 47.9841 66.5947 47.6568 66.73C47.6568 66.739 47.6568 66.748 47.6523 66.7527C47.5941 66.6533 47.5358 66.5542 47.4775 66.4551C47.4909 66.4822 47.4999 66.5137 47.5134 66.5408C47.6523 66.8789 47.9573 67.1177 48.3429 67.0142C48.6567 66.9285 48.9527 66.5227 48.8137 66.1802C48.6971 65.905 48.576 65.7383 48.3339 65.5579C47.9528 65.2739 47.4865 65.5984 47.3474 65.9636C47.2667 66.1711 47.1277 66.3242 46.9663 66.4731C47.3474 66.6309 47.733 66.7932 48.1142 66.9509C48.0918 66.5271 47.9841 66.135 47.7689 65.7698C47.5044 65.3235 46.8766 65.3416 46.6076 65.7698C46.3475 66.1846 46.0875 66.5947 45.8274 67.0095C46.2444 67.1223 46.6614 67.2351 47.0829 67.3523C47.0515 66.8203 47.0246 66.2927 46.9932 65.7607C46.9394 64.8906 45.5942 64.8862 45.6436 65.7563Z" fill="#727272" fill-opacity="1.000000" fill-rule="nonzero"/>
		<path id="Vector" d="M46.0068 56.8162C45.9664 57.1587 45.9485 57.5015 45.9575 57.844C45.9709 58.313 46.5359 58.7458 46.9708 58.4302C47.195 58.2678 47.334 58.083 47.4103 57.8171C47.4282 57.7539 47.4461 57.6819 47.4551 57.6187C47.4641 57.5601 47.4999 57.5554 47.4506 57.6006C47.2175 57.8171 46.9708 58.1282 46.5987 57.6772C46.639 57.7268 46.6255 57.7224 46.5987 57.6638C46.6301 57.7314 46.6525 57.8081 46.6838 57.8757C46.7377 57.9929 46.8184 58.0964 46.9081 58.1868C47.186 58.4617 47.5986 58.5159 47.9349 58.322C48.2532 58.1416 48.3564 57.7087 48.177 57.3977C47.9887 57.0776 47.5762 56.9739 47.2578 57.1543C47.2444 57.1633 47.2264 57.1724 47.213 57.1814C47.3251 57.1499 47.4371 57.1182 47.5538 57.0911C47.5896 57.0867 47.9125 57.2671 47.8856 57.2761C47.9035 57.312 47.9035 57.312 47.89 57.2805C47.8766 57.2444 47.8632 57.2085 47.8452 57.1724C47.7914 57.0415 47.7286 56.9199 47.6299 56.8118C47.4103 56.5818 47.0695 56.469 46.7601 56.5681C46.4686 56.6584 46.2758 56.8928 46.1816 57.1768C46.1592 57.24 46.1503 57.303 46.1323 57.3706C46.1234 57.4023 46.1144 57.4292 46.1099 57.4609C46.092 57.5195 46.092 57.5195 46.1144 57.4609C46.1413 57.3752 46.1996 57.3076 46.2892 57.2625C46.6255 57.4563 46.9619 57.6501 47.3027 57.8486C47.2937 57.5059 47.3116 57.1633 47.352 56.8208C47.3968 56.469 47.0112 56.1309 46.6794 56.1445C46.2803 56.1624 46.0561 56.4419 46.0068 56.8162Z" fill="#727272" fill-opacity="1.000000" fill-rule="nonzero"/>
		<path id="Vector" d="M45.5942 49.8823C45.4687 50.3782 45.5315 50.8877 45.796 51.325C46.1099 51.8569 46.8318 51.6946 47.0247 51.1626C47.0964 50.9644 46.9888 51.2844 47.056 51.0815C47.0829 51.0049 47.1053 51.041 47.0381 51.0725C46.8318 51.1807 46.5538 51.1086 46.491 50.8381C46.5762 51.1943 46.9753 51.406 47.3206 51.3115C47.6793 51.2122 47.8766 50.8381 47.7914 50.4773C47.6703 49.9634 47.1143 49.6885 46.6166 49.8057C46.1279 49.9275 45.8902 50.3557 45.7288 50.7976C46.1368 50.7434 46.5493 50.6892 46.9574 50.6353C46.8901 50.5181 46.8812 50.5271 46.8677 50.3872C46.8766 50.4595 46.8722 50.3691 46.8722 50.3467C46.8812 50.1482 46.8453 50.4277 46.8901 50.2339C46.9753 49.8914 46.778 49.4856 46.4193 49.3999C46.074 49.3279 45.6884 49.5127 45.5942 49.8823Z" fill="#727272" fill-opacity="1.000000" fill-rule="nonzero"/>
		<path id="Vector" d="M26.3671 48.2866C26.1698 48.5481 25.9904 48.823 25.8335 49.1116C25.569 49.585 26.0173 50.3242 26.5913 50.1035C26.7975 50.0269 26.9993 49.9456 27.2056 49.8689C26.9321 49.7112 26.6541 49.5535 26.376 49.3955C26.4119 49.4993 26.4299 49.5669 26.4254 49.6707C26.4209 50.0132 26.7393 50.3784 27.098 50.3469C27.4343 50.3198 27.7213 50.2385 28.0217 50.0945C28.349 49.9365 28.4342 49.4631 28.2638 49.1702C28.0665 48.832 27.6719 48.769 27.3446 48.9268C27.2773 48.9583 27.1518 48.9897 27.098 48.9944C27.3221 49.2197 27.5464 49.4451 27.7706 49.6707C27.775 49.4541 27.7437 49.2378 27.6719 49.0349C27.5598 48.7148 27.2056 48.4263 26.8424 48.5615C26.6361 48.6382 26.4343 48.7192 26.2281 48.7959C26.4792 49.125 26.7348 49.4587 26.9859 49.7878C27.1473 49.4993 27.3221 49.2244 27.5195 48.9629C27.7392 48.6697 27.5643 48.2053 27.2773 48.0386C26.941 47.8447 26.5868 47.9934 26.3671 48.2866Z" fill="#727272" fill-opacity="1.000000" fill-rule="nonzero"/>
		<path id="Vector" d="M22.5602 55.8787C22.3046 56.4421 22.085 57.0193 21.9056 57.6143C21.7935 57.9839 22.0401 58.3267 22.3764 58.4482C22.6634 58.552 22.9728 58.4888 23.2239 58.3267C23.3315 58.2544 23.4032 58.1824 23.4839 58.0876C23.7933 57.718 23.3673 58.1958 23.1162 57.8848C23.0579 57.7856 22.9996 57.6865 22.9413 57.5872C22.9055 57.4609 22.9324 57.7224 22.9324 57.718C22.9459 57.8215 22.9728 57.9299 23.0266 58.0244C23.1297 58.2004 23.318 58.3447 23.5108 58.3987C23.874 58.4978 24.3403 58.3582 24.4973 57.9885C24.6408 57.6548 24.5959 57.2627 24.2552 57.0642C23.9727 56.8975 23.4794 56.9695 23.3359 57.3076C23.3494 57.2896 23.3629 57.2717 23.3808 57.2581C23.4794 57.1995 23.5781 57.1409 23.6768 57.0823C23.8113 57.1228 23.9457 57.1633 24.0803 57.2041C24.1385 57.3032 24.1968 57.4023 24.2552 57.5015C24.291 57.6277 24.2641 57.3167 24.2552 57.2852C24.2193 57.1499 24.1565 57.0281 24.0668 56.929C23.9009 56.7532 23.6857 56.6494 23.4435 56.636C23.2239 56.627 23.0221 56.6902 22.8427 56.8164C22.7575 56.875 22.6858 56.9426 22.6185 57.0237C22.3405 57.3484 22.5333 57.0732 22.7396 57.1455C22.8965 57.4248 23.0535 57.7 23.2104 57.9795C23.3539 57.4971 23.5243 57.0281 23.7305 56.5684C23.8785 56.2346 23.8247 55.8425 23.4884 55.644C23.1924 55.4683 22.7082 55.5449 22.5602 55.8787Z" fill="#727272" fill-opacity="1.000000" fill-rule="nonzero"/>
		<path id="Vector" d="M21.0716 63.8535C20.9281 64.6292 20.9281 65.3818 21.0806 66.1575C21.1568 66.5405 21.5693 66.6848 21.9101 66.6306C22.1074 66.5991 22.2913 66.4866 22.4302 66.3376C22.4885 66.2747 22.5424 66.198 22.5917 66.1257C22.6186 66.0852 22.641 66.0447 22.6634 65.9995C22.7037 65.9365 22.6903 65.9409 22.6141 66.0042C22.493 66.0042 22.3764 66.0042 22.2554 66.0042C22.2867 66.0132 22.3181 66.0222 22.3495 66.031C22.2509 65.9724 22.1522 65.9138 22.0536 65.8552C22.0043 65.7517 21.9998 65.7561 22.0446 65.8689C22.067 65.9229 22.0895 65.9771 22.1119 66.031C22.1836 66.1663 22.2823 66.2747 22.4078 66.3557C22.7083 66.5586 22.9818 66.5452 23.3046 66.3962C23.6364 66.2476 23.7171 65.7607 23.5468 65.4722C23.3494 65.1294 22.9594 65.0798 22.6276 65.2288C22.6051 65.2375 22.5782 65.2512 22.5558 65.2603C22.7307 65.2375 22.9011 65.2151 23.0759 65.1926C23.049 65.1836 23.0221 65.179 22.9952 65.1699C23.0939 65.2288 23.1925 65.2874 23.2911 65.3459C23.3181 65.436 23.3181 65.4451 23.2957 65.3774C23.2732 65.3052 23.2463 65.2375 23.2149 65.1746C23.1746 65.0979 23.1298 65.0212 23.067 64.9583C22.8787 64.7554 22.6186 64.6606 22.345 64.6877C22.1074 64.7102 21.8967 64.8274 21.7308 64.9988C21.65 65.0798 21.5828 65.1746 21.5245 65.2737C21.511 65.3008 21.4931 65.3279 21.4797 65.355C21.3945 65.4812 21.4169 65.4675 21.5514 65.3188C21.8249 65.4766 22.1029 65.6343 22.3809 65.7922C22.2778 65.2693 22.2733 64.7327 22.3719 64.2097C22.4392 63.8491 22.2733 63.4795 21.9011 63.3757C21.5693 63.29 21.1389 63.4929 21.0716 63.8535Z" fill="#727272" fill-opacity="1.000000" fill-rule="nonzero"/>
		<path id="Vector" d="M22.0311 73.6143C22.2195 73.9929 22.4033 74.3716 22.5916 74.7502C22.7576 75.084 23.2104 75.1606 23.5109 74.9937C23.753 74.8586 23.9189 74.6421 23.9951 74.3716C24.031 74.25 24.0534 74.0967 24.04 73.9705C24.0265 73.8262 24.0893 73.8667 24.0131 73.9343C23.9144 73.9929 23.8157 74.0515 23.7171 74.1101C23.7081 74.1147 23.6992 74.1147 23.6902 74.1191C23.5781 74.0876 23.466 74.0562 23.3494 74.0291C23.5826 74.1643 23.6947 74.3806 24.0355 74.3806C24.439 74.3806 24.5287 74.1416 24.7708 73.9028C24.6722 73.9614 24.5735 74.02 24.4749 74.0786C24.3448 73.9973 24.2148 73.9163 24.0848 73.8306C24.1386 74.1914 24.5915 74.3896 24.9143 74.304C25.2999 74.1958 25.439 73.8352 25.3851 73.47C25.3224 73.0642 24.9412 72.7622 24.5466 72.7217C24.0848 72.6765 23.7844 72.929 23.5646 73.3076C23.6454 73.2266 23.7261 73.1453 23.8068 73.0642C23.7844 73.0823 23.7574 73.1003 23.735 73.1184C23.8472 73.0867 23.9592 73.0552 24.0758 73.0281C24.0534 73.0281 24.0265 73.0281 24.0041 73.0281C24.1161 73.0598 24.2283 73.0913 24.3448 73.1184C24.2642 73.0732 24.0534 72.8433 23.874 72.7937C23.6185 72.7217 23.3494 72.7756 23.1387 72.9336C22.9504 73.0732 22.8203 73.2805 22.7531 73.5015C22.7083 73.6414 22.7576 73.9253 22.6858 74.0244C22.7665 73.9434 22.8472 73.8623 22.9279 73.781C22.901 73.7947 22.8741 73.8125 22.8427 73.8262C23.1476 73.9072 23.457 73.9885 23.762 74.0696C23.5736 73.6909 23.3898 73.3123 23.2015 72.9336C22.8069 72.1489 21.6455 72.8342 22.0311 73.6143Z" fill="#727272" fill-opacity="1.000000" fill-rule="nonzero"/>
		<path id="Vector" d="M26.1833 83.6587C26.1609 84.2402 26.7617 84.5693 27.2684 84.4116C27.5106 84.335 27.6854 84.1636 27.802 83.9473C27.8199 83.9111 27.8379 83.8706 27.8558 83.8345C27.9545 83.6768 27.8558 83.7219 27.5509 83.9788C27.4119 83.9607 27.4747 83.9607 27.5733 84.0149C27.8917 84.1907 28.3087 84.0916 28.4925 83.7715C28.6719 83.4604 28.5687 83.0229 28.2504 82.8472C27.9186 82.6624 27.5419 82.5542 27.1743 82.7075C26.9859 82.7886 26.829 82.9238 26.7214 83.1042C26.6899 83.1538 26.6586 83.2124 26.6406 83.271C26.6317 83.2891 26.6227 83.3071 26.6138 83.3252C26.8469 83.0637 27.0891 83.041 27.3446 83.2576C27.4029 83.3567 27.4612 83.4558 27.5195 83.5549C27.524 83.5911 27.5284 83.6272 27.533 83.6633C27.5464 83.3071 27.2146 82.969 26.8604 82.9871C26.4792 83.0005 26.1967 83.28 26.1833 83.6587Z" fill="#727272" fill-opacity="1.000000" fill-rule="nonzero"/>
		<path id="Vector" d="M51.0377 50.1575C51.1185 50.5632 51.2574 50.9419 51.4323 51.3159C51.5982 51.6631 52.0511 51.7083 52.3515 51.5596C52.5219 51.4739 52.6609 51.3206 52.7506 51.1538C52.7775 51.1042 52.7954 51.05 52.8223 50.9958C52.9658 50.6848 52.8179 51.1538 52.4726 51.1177C52.3605 51.0862 52.2484 51.0544 52.1318 51.0276C52.0556 50.9915 52.2439 51.113 52.2439 51.113C52.3157 51.1672 52.365 51.1987 52.4502 51.2349C52.6251 51.3115 52.8044 51.325 52.9927 51.2981C53.3963 51.2305 53.6339 50.969 53.7864 50.6038C53.9254 50.2656 53.6339 49.8599 53.3156 49.7698C52.9299 49.6614 52.6295 49.905 52.486 50.2432C52.643 49.95 52.8403 49.887 53.0734 50.0537C53.0555 50.0356 53.0376 50.0176 53.0151 50.0042C52.9299 49.9185 52.7686 49.8284 52.652 49.7966C52.4367 49.738 52.2036 49.7742 52.0153 49.887C51.8583 49.9814 51.7462 50.1304 51.67 50.2927C51.652 50.3333 51.6296 50.3782 51.6117 50.4233C51.5624 50.5676 51.5892 50.4324 51.67 50.3962C51.9749 50.4775 52.2842 50.5586 52.5892 50.6399C52.4636 50.3738 52.3874 50.0942 52.3291 49.8057C52.2618 49.4451 51.8314 49.2422 51.4996 49.3323C51.1364 49.427 50.9705 49.7966 51.0377 50.1575Z" fill="#727272" fill-opacity="1.000000" fill-rule="nonzero"/>
		<path id="Vector" d="M52.5981 57.8982C52.6833 58.3264 52.7731 58.7549 52.8582 59.1831C53.0017 59.8909 53.9478 59.7603 54.1541 59.1831C54.2214 58.9893 54.338 58.863 54.4859 58.7278C54.1317 58.6826 53.7819 58.6377 53.4277 58.5925C53.5443 58.863 53.6653 59.1379 53.7819 59.4084C53.9164 59.7195 54.4366 59.8547 54.7011 59.6519C54.8625 59.5303 54.9926 59.4221 55.0957 59.2417C55.1316 59.1787 55.1719 59.1021 55.1943 59.0298C55.2033 58.9983 55.2168 58.9668 55.2347 58.9397C55.3423 58.7412 55.136 58.6782 54.6115 58.7502C54.5621 59.1111 54.9567 59.4265 55.2841 59.4265C55.6876 59.4265 55.9073 59.1155 55.9566 58.7502C56.0328 58.1868 55.5082 57.6772 54.9657 57.6772C54.6921 57.6772 54.4456 57.7991 54.2617 57.9929C54.1765 58.083 54.1182 58.1824 54.0599 58.2905C54.024 58.3625 53.8851 58.5879 54.024 58.4844C54.329 58.5654 54.6384 58.6467 54.9432 58.7278C54.8267 58.4573 54.7056 58.1824 54.5891 57.9119C54.4052 57.488 53.8178 57.5151 53.5308 57.7766C53.208 58.0696 53.0017 58.4211 52.8538 58.8269C53.2842 58.8269 53.7192 58.8269 54.1496 58.8269C54.0644 58.3987 53.9747 57.9705 53.8895 57.542C53.7236 56.6855 52.4233 57.0461 52.5981 57.8982Z" fill="#727272" fill-opacity="1.000000" fill-rule="nonzero"/>
		<path id="Vector" d="M53.7774 68.2402C53.737 68.5784 53.7774 68.9255 53.8671 69.2502C53.9792 69.6423 54.4904 69.9084 54.8535 69.656C55.0912 69.489 55.2347 69.3088 55.3378 69.0383C55.3647 68.9707 55.3871 68.8984 55.4095 68.8264C55.4499 68.6821 55.4095 68.876 55.293 68.894C55.1719 68.894 55.0553 68.894 54.9343 68.894C54.8221 68.8489 54.7504 68.7812 54.7325 68.6821C54.719 68.637 54.7235 68.6506 54.7504 68.7227C54.7639 68.7632 54.7773 68.8083 54.7908 68.8489C54.867 69.0564 54.9746 69.2231 55.145 69.3628C55.5127 69.6604 55.9297 69.6108 56.2884 69.3313C56.5754 69.106 56.5215 68.6101 56.2884 68.3755C56.0059 68.0916 55.6248 68.1501 55.3378 68.3755C55.3243 68.3892 55.3064 68.3982 55.293 68.4116C55.3916 68.353 55.4902 68.2944 55.5889 68.2358C55.571 68.2402 55.553 68.2449 55.5351 68.2493C55.6561 68.2493 55.7728 68.2493 55.8938 68.2493C55.9745 68.2629 56.0911 68.5107 56.0417 68.3621C56.0059 68.2449 55.9611 68.123 55.8983 68.0195C55.71 67.7129 55.3782 67.5371 55.0239 67.573C54.71 67.6047 54.4545 67.803 54.2841 68.0645C54.2123 68.1772 54.163 68.3035 54.1226 68.4297C54.1092 68.4702 54.0823 68.5288 54.0778 68.5693C54.0733 68.6279 54.0643 68.5559 54.1765 68.4792C54.5038 68.6145 54.8356 68.7498 55.1629 68.885C55.1002 68.6641 55.0912 68.4658 55.1181 68.2358C55.1584 67.8706 54.7773 67.5596 54.4455 67.5596C54.0554 67.564 53.8222 67.8752 53.7774 68.2402Z" fill="#727272" fill-opacity="1.000000" fill-rule="nonzero"/>
		<path id="Vector" d="M53.4053 76.2019C53.3694 76.6438 53.4053 77.0767 53.4725 77.5139C53.5532 78.0234 54.2751 78.1541 54.598 77.8115C54.7146 77.6897 54.8356 77.5681 54.9612 77.4553C55.0733 77.3562 55.1899 77.2571 55.2795 77.1938C54.9522 77.0586 54.6204 76.9233 54.2931 76.7881C54.3334 76.9053 54.3334 76.77 54.32 76.8962C54.329 76.8015 54.2662 76.9819 54.311 76.9053C54.1362 77.2253 54.2348 77.6448 54.5532 77.8296C54.8625 78.0098 55.2975 77.9106 55.4724 77.5862C55.6652 77.23 55.728 76.8152 55.5934 76.4275C55.4634 76.0579 54.9791 75.7466 54.607 76.0217C54.2662 76.2742 53.9478 76.5447 53.6564 76.8513C54.033 76.9504 54.4052 77.0496 54.7819 77.1487C54.737 76.8557 54.737 76.5132 54.7594 76.1931C54.7863 75.8413 54.4321 75.5032 54.0869 75.5168C53.6923 75.5437 53.4366 75.8232 53.4053 76.2019Z" fill="#727272" fill-opacity="1.000000" fill-rule="nonzero"/>
		<path id="Vector" d="M52.9749 85.0339C52.7327 85.4441 52.5489 85.895 52.4457 86.3638C52.3651 86.72 52.5533 87.0942 52.9166 87.198C53.2932 87.3015 53.616 87.0718 53.7461 86.7246C53.7864 86.6118 53.921 86.3684 53.9927 86.2737C53.6743 86.2737 53.3605 86.2737 53.0421 86.2737C52.9614 86.1746 52.939 86.0664 52.9703 85.9402C52.912 86.3008 53.0645 86.666 53.4412 86.7742C53.764 86.8643 54.2079 86.666 54.2707 86.3008C54.3335 85.9265 54.2662 85.5974 53.9972 85.3179C53.764 85.0745 53.2708 85.0339 53.0466 85.3179C52.7865 85.6426 52.5982 85.9717 52.4502 86.3638C52.8807 86.4856 53.3156 86.6028 53.7461 86.7246C53.8312 86.3459 53.9434 86.0483 54.1407 85.7192C54.3245 85.4036 54.2124 84.9753 53.8985 84.7949C53.5802 84.6057 53.1631 84.7183 52.9749 85.0339Z" fill="#727272" fill-opacity="1.000000" fill-rule="nonzero"/>
		<path id="Vector" d="M57.8981 87.7344C57.6202 88.0996 57.4901 88.5503 57.4677 89.0056C57.4542 89.2717 57.647 89.5286 57.8802 89.6233C58.1448 89.7314 58.4004 89.6685 58.6156 89.4836C58.9474 89.1995 59.2792 88.9111 59.611 88.627C59.2568 88.5818 58.907 88.5369 58.5528 88.4917C58.5259 88.4512 58.5394 88.3926 58.5438 88.3474C58.5483 88.3159 58.6201 88.2078 58.5483 88.3203C58.3555 88.6316 58.4811 89.0642 58.7905 89.2446C59.1133 89.4341 59.5168 89.3123 59.7097 89.0012C59.9384 88.636 59.9339 88.1716 59.7142 87.802C59.4765 87.4053 58.9877 87.3828 58.6559 87.6667C58.3242 87.9507 57.9923 88.2393 57.6605 88.5232C58.0416 88.6812 58.4272 88.8435 58.8084 89.0012C58.8174 88.7983 58.7725 89.0913 58.8174 88.8975C58.8353 88.8298 58.8533 88.7578 58.8757 88.6902C58.8398 88.7847 58.9294 88.5955 58.9294 88.5908C58.9653 88.5278 59.0057 88.4692 59.0505 88.415C59.2703 88.1221 59.0954 87.6577 58.8084 87.491C58.4721 87.2881 58.1224 87.4414 57.8981 87.7344Z" fill="#727272" fill-opacity="1.000000" fill-rule="nonzero"/>
		<path id="Vector" d="M60.3823 78.8799C60.2881 79.3938 60.2343 79.9124 60.2298 80.4399C60.2208 81.1025 61.158 81.373 61.4853 80.7825C61.6871 80.4128 61.9247 80.0928 62.2206 79.7952C61.9471 79.8313 61.6781 79.8672 61.4046 79.8989C61.3911 79.8899 61.3732 79.8762 61.3597 79.8672C61.3015 79.7681 61.2432 79.6689 61.1849 79.5698C61.1714 79.5291 61.2162 79.4028 61.1714 79.5471C61.14 79.6375 61.1221 79.7815 61.1176 79.8672C61.1086 80.0837 61.1714 80.2957 61.297 80.4714C61.4405 80.6653 61.6781 80.7959 61.9247 80.7959C62.0593 80.7959 62.2162 80.7554 62.3328 80.6924C62.3552 80.6787 62.3731 80.6697 62.3956 80.6562C62.5032 80.5886 62.4718 80.584 62.3014 80.6428C62.1893 80.6111 62.0772 80.5796 61.9606 80.5525C61.7812 80.4624 61.7678 80.3586 61.7857 80.228C61.7364 80.5886 61.8754 80.9539 62.2565 81.062C62.5704 81.1477 63.0323 80.9539 63.0861 80.5886C63.1399 80.2009 63.1219 79.8086 62.826 79.5156C62.678 79.3713 62.4539 79.2856 62.2476 79.2903C62.113 79.2947 61.9561 79.3398 61.8395 79.4028C61.8082 79.4209 61.6602 79.4841 61.7454 79.4661C61.8665 79.4661 61.983 79.4661 62.1041 79.4661C62.0862 79.4614 62.0637 79.4524 62.0458 79.448C62.1445 79.5066 62.2431 79.5652 62.3417 79.6238C62.3866 79.998 62.4269 80.0928 62.4673 79.908C62.4852 79.8628 62.4942 79.8176 62.5032 79.7681C62.5256 79.6643 62.5345 79.5562 62.5256 79.448C62.5076 79.1504 62.3552 78.8665 62.0817 78.7356C61.8126 78.6003 61.4898 78.6184 61.2656 78.8394C60.8934 79.2136 60.5751 79.6375 60.3195 80.0972C60.7365 80.21 61.1535 80.3225 61.575 80.4399C61.5795 80.0386 61.6108 79.6375 61.6826 79.2407C61.7454 78.8799 61.5839 78.5103 61.2118 78.4065C60.8799 78.3164 60.445 78.5193 60.3823 78.8799Z" fill="#727272" fill-opacity="1.000000" fill-rule="nonzero"/>
		<path id="Vector" d="M61.288 69.5703C61.0952 70.0347 61.0907 70.5623 61.2387 71.04C61.4449 71.6982 62.3148 71.6667 62.5345 71.04C62.6467 70.7156 62.8484 70.4585 63.104 70.2332C62.7229 70.0754 62.3373 69.9131 61.9561 69.7554C61.9696 69.9851 61.9875 70.2151 62.001 70.4404C62.0279 70.8372 62.288 71.0718 62.6736 71.1167C62.8888 71.1438 63.0861 71.0718 63.2654 70.9543C63.3417 70.9048 63.4089 70.8462 63.4672 70.7786C63.4896 70.7471 63.5165 70.72 63.5389 70.6929C63.6197 70.6074 63.5524 70.6252 63.3327 70.7471C63.2206 70.7156 63.1085 70.6841 62.9919 70.657C62.9561 70.6165 62.9157 70.5757 62.8798 70.5352C62.8484 70.4224 62.817 70.3098 62.7902 70.1926C62.7902 70.2107 62.7902 70.2285 62.7946 70.2466C62.826 70.134 62.8574 70.0212 62.8843 69.9041C62.8753 69.9175 62.8664 69.9355 62.8574 69.9492C62.4 70.6929 63.5659 71.3738 64.0187 70.6299C64.2878 70.1926 64.0636 69.6245 63.5928 69.4531C63.3461 69.363 63.095 69.3811 62.8664 69.5073C62.7722 69.5569 62.6915 69.6289 62.6152 69.7056C62.5974 69.7236 62.5839 69.7463 62.5659 69.7642C62.4763 69.8545 62.5121 69.8545 62.6736 69.7642C62.8978 69.9897 63.1219 70.2151 63.3461 70.4404C63.3327 70.2107 63.3148 69.9807 63.3013 69.7554C63.2609 69.1558 62.6018 68.8806 62.1534 69.2773C61.723 69.6606 61.427 70.1384 61.2387 70.6794C61.6691 70.6794 62.1041 70.6794 62.5345 70.6794C62.4493 70.4045 62.4763 70.1926 62.5839 69.9312C62.7229 69.593 62.4314 69.1873 62.113 69.0969C61.7274 68.9888 61.427 69.2322 61.288 69.5703Z" fill="#727272" fill-opacity="1.000000" fill-rule="nonzero"/>
		<path id="Vector" d="M60.7275 57.7178C60.7634 58.0964 60.8037 58.4797 60.8396 58.8584C60.871 59.1919 61.0683 59.4805 61.4225 59.521C61.7454 59.5618 62.0771 59.3677 62.1624 59.0386C62.2341 58.7502 62.3328 58.4888 62.4763 58.2317C62.0906 58.2317 61.7005 58.2317 61.3149 58.2317C61.3821 58.3579 61.4494 58.4841 61.5122 58.606C61.7588 59.0703 62.4135 59.0161 62.6735 58.606C62.696 58.5698 62.7274 58.5383 62.7274 58.5247C62.7991 58.4617 62.7498 58.4661 62.5883 58.5383C62.5166 58.5789 62.4449 58.5879 62.3731 58.5742C62.2924 58.4932 62.2117 58.4121 62.131 58.3308C62.1265 58.3127 62.122 58.2949 62.1176 58.2769C62.3776 59.1018 63.6779 58.7502 63.4134 57.916C63.2789 57.4924 62.9112 57.2263 62.4628 57.24C62.0278 57.2534 61.723 57.5779 61.5077 57.9207C61.8933 57.9207 62.2834 57.9207 62.6691 57.9207C62.6018 57.7944 62.5345 57.6682 62.4717 57.5464C62.2386 57.1047 61.5481 57.1091 61.3104 57.5464C61.1176 57.9026 60.9651 58.2812 60.862 58.678C61.3015 58.7366 61.7408 58.7998 62.1848 58.8584C62.1489 58.4797 62.1086 58.0964 62.0727 57.7178C62.0368 57.3525 61.7902 57.0415 61.4001 57.0415C61.0638 57.0415 60.6917 57.3525 60.7275 57.7178Z" fill="#727272" fill-opacity="1.000000" fill-rule="nonzero"/>
		<path id="Vector" d="M57.3959 50.1575C57.5663 50.5903 57.7771 50.9509 58.073 51.3115C58.4138 51.7263 59.055 51.4558 59.1985 51.0139C59.3016 50.6895 59.3465 50.3379 59.3151 49.9998C58.8981 50.1123 58.4811 50.2251 58.0596 50.3423C58.1896 50.5947 58.3735 50.8247 58.5931 51.0051C58.8757 51.2349 59.2703 51.28 59.5438 51.0051C59.7814 50.7661 59.8262 50.2793 59.5438 50.0493C59.4631 49.9861 59.3868 49.9141 59.324 49.8374C59.2568 49.7517 59.3644 49.905 59.3061 49.8103C59.2747 49.7607 59.2478 49.7112 59.2209 49.6616C59.0819 49.3911 58.7366 49.2693 58.4586 49.3459C58.1941 49.418 57.9385 49.7065 57.9654 49.9998C57.9923 50.2837 57.9833 50.3965 57.8981 50.6533C58.2748 50.5542 58.647 50.4551 59.0236 50.3557C58.9653 50.2881 58.907 50.2026 58.8398 50.0852C58.8084 50.0312 58.777 49.9727 58.7456 49.9185C58.7366 49.905 58.6649 49.7336 58.6873 49.8013C58.5528 49.4631 58.239 49.2241 57.8578 49.3279C57.5439 49.4136 57.2614 49.8149 57.3959 50.1575Z" fill="#727272" fill-opacity="1.000000" fill-rule="nonzero"/>
		<path id="Vector" d="M64.1891 49.6345C64.2429 49.9185 64.3506 50.1936 64.4985 50.446C64.651 50.7029 64.9694 50.8381 65.2563 50.7571C65.5612 50.6714 65.7227 50.4055 65.7495 50.1033C65.7809 49.7878 65.8123 49.4678 65.8437 49.1521C65.5074 49.3459 65.1711 49.5398 64.8303 49.7383C65.0366 49.8914 65.2429 50.0493 65.4491 50.2026C65.7406 50.4189 66.2024 50.2522 66.3683 49.959C66.5701 49.6165 66.4177 49.2512 66.1262 49.0349C65.9199 48.8816 65.7137 48.7239 65.5074 48.5706C65.3191 48.4307 65.0187 48.4578 64.8303 48.5706C64.6107 48.7012 64.5209 48.9087 64.4985 49.1565C64.4672 49.4722 64.4357 49.7922 64.4044 50.1079C64.8214 49.9951 65.2384 49.8826 65.6599 49.7651C65.5522 49.585 65.5254 49.4993 65.485 49.2783C65.4177 48.9177 64.9873 48.7148 64.6555 48.8049C64.2878 48.9041 64.1263 49.2739 64.1891 49.6345Z" fill="#727272" fill-opacity="1.000000" fill-rule="nonzero"/>
		<path id="Vector" d="M67.1754 57.7495C67.2382 58.1235 67.3279 58.4844 67.449 58.845C67.588 59.2732 68.0364 59.4536 68.4354 59.2507C68.682 59.1245 68.839 58.8901 68.9018 58.624C68.9331 58.5022 68.9376 58.3716 68.9466 58.2407C68.9466 58.1958 68.9511 58.1506 68.9556 58.1055C68.9466 58.2949 68.821 58.4167 68.5744 58.4797C68.4623 58.4482 68.3503 58.4167 68.2336 58.3896C68.7628 58.6511 69.1753 58.8269 69.7806 58.6917C70.6236 58.5022 70.2693 57.1948 69.4219 57.3887C69.2112 57.4382 69.0901 57.312 68.9107 57.2219C68.5969 57.0686 68.2381 57.0913 67.9646 57.3076C67.7584 57.47 67.6642 57.6953 67.6283 57.9524C67.6149 58.0515 67.6104 58.1462 67.6014 58.2454C67.5924 58.3311 67.5969 58.3354 67.6059 58.2678C67.5611 58.4211 67.6104 58.3582 67.7584 58.0876C68.0857 58.2229 68.4175 58.3582 68.7448 58.4934C68.6282 58.1326 68.5386 57.772 68.4713 57.3977C68.4085 57.0371 67.9691 56.8342 67.6418 56.9243C67.2651 57.019 67.1127 57.3887 67.1754 57.7495Z" fill="#727272" fill-opacity="1.000000" fill-rule="nonzero"/>
		<path id="Vector" d="M68.7403 67.5325C68.6955 67.8752 68.6462 68.2178 68.6013 68.5603C68.561 68.8625 68.6282 69.1599 68.9107 69.3223C69.1439 69.4622 69.5475 69.4485 69.7268 69.2188C69.8254 69.0879 69.9241 68.9797 70.081 68.9255C69.7986 68.7092 69.5116 68.4929 69.2291 68.272C69.238 68.5425 69.2425 68.813 69.2515 69.0835C69.265 69.5342 69.6685 69.8408 70.1035 69.7371C70.3187 69.6875 70.498 69.5793 70.6684 69.4441L70.8343 69.3132C70.8209 69.2952 70.6057 69.3088 70.5563 69.2546C70.498 69.1555 70.4397 69.0564 70.3814 68.9573C70.3904 68.9797 70.3949 69.0022 70.4039 69.0247C70.6864 69.8408 71.9867 69.4893 71.6997 68.6641C71.5428 68.2178 71.1841 67.9653 70.7088 67.9788C70.516 67.9834 70.3142 68.0464 70.1483 68.1458C70.0138 68.2268 69.8882 68.3936 69.7358 68.4297C70.0182 68.646 70.3052 68.8625 70.5877 69.0835C70.5787 68.813 70.5742 68.5425 70.5653 68.272C70.5563 67.8572 70.1393 67.4739 69.7133 67.6182C69.3412 67.749 69.0094 67.9473 68.7672 68.2629C69.1439 68.4839 69.5161 68.7002 69.8927 68.9211C69.9375 68.5784 69.9869 68.2358 70.0317 67.8933C70.081 67.5325 69.9465 67.1672 69.5609 67.0591C69.256 66.9734 68.7896 67.1672 68.7403 67.5325Z" fill="#727272" fill-opacity="1.000000" fill-rule="nonzero"/>
		<path id="Vector" d="M66.8078 78.7312C66.7136 79.1143 66.6194 79.4976 66.5298 79.8809C66.4445 80.2324 66.6374 80.6201 67.0006 80.7148C67.3234 80.8005 67.6328 80.7373 67.8973 80.5254C68.1081 80.3542 68.1843 80.0881 68.3771 79.9214C68.2785 79.98 68.1798 80.0386 68.0812 80.0972C68.1126 80.0837 68.144 80.0701 68.1798 80.0566C68.0588 80.0566 67.9422 80.0566 67.8211 80.0566C67.8525 80.061 67.8839 80.0701 67.9198 80.0747C67.7852 79.9709 67.6507 79.8672 67.5162 79.7634C67.5072 79.7095 67.5117 79.7229 67.5252 79.8132C67.5566 79.8899 67.588 79.9663 67.6238 80.043C67.7135 80.1919 67.8525 80.2954 68.005 80.363C68.1664 80.4353 68.3457 80.4443 68.5206 80.4082C68.5789 80.4038 68.6372 80.3857 68.691 80.363C68.9556 80.2776 68.9018 80.2505 68.5296 80.2866C68.4489 80.2053 68.3682 80.1243 68.2874 80.043C68.2964 80.0566 68.3099 80.0747 68.3188 80.0881C68.2874 79.9753 68.2561 79.8628 68.2292 79.7456C68.2292 79.7634 68.2292 79.7861 68.2247 79.8042C68.1843 80.6743 69.5295 80.6743 69.5699 79.8042C69.5878 79.4343 69.3367 79.1233 68.9914 79.0151C68.83 78.9656 68.6507 78.9612 68.4847 79.0017C68.4265 79.0151 68.1978 79.0603 68.265 79.0693C68.3771 79.1008 68.4892 79.1323 68.6058 79.1594C68.5834 79.146 68.5655 79.1279 68.543 79.1143C68.6237 79.1956 68.7045 79.2766 68.7852 79.3579C68.7538 79.2947 68.682 79.0557 68.5699 78.9385C68.3906 78.7583 68.0633 78.677 67.8211 78.7446C67.6238 78.7988 67.4534 78.916 67.3189 79.0647C67.2472 79.146 67.1844 79.2361 67.1306 79.3308C67.1127 79.3623 67.0992 79.3938 67.0813 79.4209C66.9557 79.5923 67.0499 79.5876 67.3638 79.4028C67.5207 79.6824 67.6776 79.9575 67.8346 80.2368C67.9287 79.8538 68.0229 79.4705 68.1126 79.0874C68.3099 78.2441 67.014 77.8835 66.8078 78.7312Z" fill="#727272" fill-opacity="1.000000" fill-rule="nonzero"/>
		<path id="Vector" d="M65.3819 86.8643C65.4805 86.9409 65.5792 87.0173 65.6778 87.094C65.9648 87.3196 66.4311 87.1392 66.597 86.8506C66.7988 86.5034 66.6463 86.1475 66.3549 85.9265C66.2562 85.8499 66.1576 85.7732 66.0589 85.6965C65.772 85.4712 65.3056 85.6514 65.1397 85.9399C64.9379 86.2871 65.0949 86.6387 65.3819 86.8643Z" fill="#727272" fill-opacity="1.000000" fill-rule="nonzero"/>
	</g>
	<rect id="Frame" width="61.000000" height="46.000000" transform="translate(16.000000 0.000000)" fill="#FFFFFF" fill-opacity="0"/>
	<g clip-path="url(#clip5_1599)">
		<path id="Vector" d="M35.2992 44.7373C35.8583 40.1055 32.6253 36.647 29.1803 33.9797C27.1737 32.4238 25.2122 31.126 23.9045 28.8987C23.2372 27.7563 22.5969 26.4673 22.2227 25.2002C21.4921 22.7332 22.7547 18.8569 25.8796 21.7019C27.6787 23.3423 28.0936 25.4583 29.4689 27.2808C30.2444 28.312 31.4349 28.8633 32.6749 28.2053C36.404 26.2317 33.5181 19.3857 32.6839 16.6653C31.6738 13.3713 31.1418 10.2019 32.8417 7.03247C33.4009 5.99219 34.0276 4.9209 34.7446 3.98291C35.209 3.37842 35.7997 2.72485 36.4626 2.30688C37.8334 1.43579 38.6586 1.43579 40.1736 1.89795C41.7879 2.39136 41.8015 2.47583 42.1306 4.00513C42.2839 4.71191 42.347 5.48975 42.3831 6.21875C42.4598 7.76147 42.3335 9.31714 42.0134 10.833C41.4136 13.7092 39.6866 16.252 39.3079 19.1724C39.0283 21.3196 39.2222 28.1431 42.8115 27.5029C47.0186 26.7517 46.7164 20.0928 50.91 19.2036C54.4 18.4612 56.1045 22.2441 54.6255 24.8403C53.8229 26.2539 52.4882 27.3474 51.2031 28.312C48.9124 30.0322 46.1122 30.9302 43.8621 32.6685C39.7903 35.8245 41.1431 40.7856 42.816 44.853C43.1407 45.6399 44.4483 45.293 44.1191 44.4973C42.9919 41.7546 41.576 38.3984 43.1001 35.5178C44.5114 32.8506 48.236 31.9172 50.6394 30.3435C53.886 28.2188 58.5439 24.2178 55.7934 20.0083C53.4937 16.4832 49.0386 17.6611 46.9374 20.6128C46.3016 21.5063 45.8101 22.4888 45.2465 23.4265C44.9894 23.8533 44.7324 24.2847 44.4303 24.6846C44.2139 24.9424 43.9974 25.1958 43.7809 25.4536C42.072 25.8271 41.1882 25.3782 41.1296 24.0979C39.4161 20.5061 41.4903 16.8254 42.6537 13.5137C43.5194 11.0508 43.8892 8.42822 43.7043 5.82764C43.5781 4.02734 43.3887 1.59131 41.6707 0.515625C40.1601 -0.431396 37.8379 0.111084 36.3544 0.848877C34.1449 1.95142 32.7921 4.28955 31.6738 6.37012C28.8015 11.7131 31.7009 16.4209 32.7696 21.8042C32.9094 22.5198 33.2656 24.0889 33.0266 24.8848C32.2961 25.5425 31.5656 26.196 30.8306 26.854C30.4113 26.325 30.0956 25.7471 29.8747 25.1113C29.4508 24.1824 29.0044 23.3154 28.3867 22.4888C27.4127 21.1816 25.5729 19.0347 23.6926 19.1414C21.8664 19.248 20.7932 21.1506 20.5994 22.7375C20.3107 25.0847 21.5869 27.5874 22.7412 29.5789C25.9427 35.0955 34.8663 37.127 33.9465 44.7463C33.8473 45.5864 35.2 45.582 35.2992 44.7373Z" fill="#46A358" fill-opacity="1.000000" fill-rule="nonzero"/>
		<path id="Vector" d="M46.987 22.5732C47.961 17.7056 46.1212 13.2559 45.738 8.45044C45.508 5.57886 46.748 0.986816 50.689 2.2937C53.6245 3.26733 54.7383 6.7168 54.5399 9.47754C54.3956 11.4956 53.4125 17.4167 57.3536 16.8655C60.7355 16.3943 62.4805 10.8376 64.1218 8.48169C65.5287 6.46362 68.6355 3.51636 71.368 4.33862C75.6969 5.64111 72.9237 10.7622 70.9307 12.7759C67.5714 16.1675 63.9911 19.1682 61.0286 22.9468C59.3105 25.1382 57.8225 28.739 61.6328 29.7214C63.0983 30.0991 64.5096 29.5969 65.8308 29.0012C66.895 28.521 67.9095 27.9478 69.0413 27.6321C71.1065 27.0542 73.5009 27.5076 72.1346 30.0369C68.9376 35.9626 61.6193 31.5928 56.8981 34.0776C52.894 36.1892 51.9606 40.8569 52.3394 44.9509C52.416 45.8 53.7733 45.8088 53.6921 44.9509C53.4261 42.0972 53.6561 39.012 55.6581 36.7493C58.2464 33.8245 61.7004 34.8911 65.1274 34.8245C68.6265 34.7578 73.1311 33.0864 73.8571 29.2324C74.6507 25.0093 69.7718 25.8271 67.2692 26.8452C66.1645 27.2942 65.1319 27.9922 63.9775 28.321C63.0622 28.5833 61.6147 28.7256 60.8932 27.8765C60.1943 27.0498 60.758 25.6582 61.1909 24.9561C62.7736 22.3777 65.1995 20.0261 67.3549 17.9058C70.3264 14.9807 75.3947 11.8779 74.9574 7.10815C74.6237 3.4585 71.2057 2.12036 68.0538 3.4895C66.16 4.31201 64.5953 5.6189 63.3598 7.25024C61.7455 9.37964 60.8843 12.3047 58.9589 14.1807C58.2644 14.8562 57.5836 16.292 56.0324 14.8828C55.3425 14.2561 55.5499 12.5847 55.6221 11.7268C55.7167 10.6021 55.9603 9.50415 55.9242 8.37061C55.8655 6.45459 55.2208 4.51196 53.9627 3.02734C51.3022 -0.102295 46.7345 0.0356445 44.9669 3.96069C43.9117 6.30786 44.3762 8.99292 44.8181 11.429C45.4674 15.0251 46.4188 18.5547 45.6838 22.2178C45.517 23.0579 46.8202 23.418 46.987 22.5732Z" fill="#46A358" fill-opacity="1.000000" fill-rule="nonzero"/>
		<path id="Vector" d="M46.6849 31.0059C46.0491 35.5889 45.0074 40.0786 43.5555 44.4795C43.285 45.2976 44.5926 45.6487 44.8586 44.8352C46.3106 40.4343 47.3522 35.9446 47.988 31.3616C48.1052 30.5168 46.8021 30.1567 46.6849 31.0059Z" fill="#46A358" fill-opacity="1.000000" fill-rule="nonzero"/>
		<path id="Vector" d="M30.506 43.9731C30.3301 40.4434 27.8456 38.0608 24.9868 36.2471C23.1335 35.0691 21.1044 34.0867 19.5126 32.553C18.8273 31.895 17.5511 30.6194 17.4835 29.5969C17.2536 26.1873 21.4786 28.8413 22.4166 29.6279C23.0749 30.1836 24.0353 29.2412 23.3725 28.6855C21.898 27.4453 19.2512 25.8318 17.2265 26.7651C15.5942 27.5166 15.8647 29.3792 16.4915 30.7217C19.1294 36.4248 28.806 37.0784 29.1533 43.9731C29.1938 44.8264 30.5511 44.8311 30.506 43.9731Z" fill="#46A358" fill-opacity="1.000000" fill-rule="nonzero"/>
		<path id="Vector" d="M60.8391 45.293C62.5256 42.7859 64.7486 40.7366 67.4721 39.3586C69.9521 38.105 73.0274 37.8872 75.2234 36.1135C77.744 34.0776 77.8748 29.0854 73.7038 29.2144C72.8335 29.241 72.8335 30.5747 73.7038 30.5479C75.3496 30.7703 76.017 31.6682 75.7149 33.2373C75.3767 34.1396 74.804 34.8511 73.9969 35.3667C73.0094 36.0557 71.8099 36.3713 70.6736 36.7268C69.2262 37.1804 67.8148 37.656 66.4756 38.3672C63.6889 39.8521 61.4118 42.0303 59.6667 44.6218C59.1843 45.3374 60.3566 46.0044 60.8391 45.293Z" fill="#46A358" fill-opacity="1.000000" fill-rule="nonzero"/>
		<path id="Vector" d="M64.5141 33.5618C58.783 34.6287 56.6682 40.252 55.3109 45.1731C55.0809 46.0042 56.3885 46.3555 56.614 45.5286C57.8495 41.0522 59.6307 35.8245 64.8748 34.8511C65.7271 34.6865 65.3663 33.4019 64.5141 33.5618Z" fill="#46A358" fill-opacity="1.000000" fill-rule="nonzero"/>
		<path id="Vector" d="M34.2937 13.2646C33.6218 10.6021 34.4605 7.68579 36.6339 5.89893C37.0714 5.521 37.5673 5.23193 38.1129 5.03198C39.6145 5.34766 40.3134 6.13892 40.2097 7.40576C40.2368 8.1438 40.0925 8.8728 39.9166 9.58398C39.5604 11.0198 38.9336 12.3845 38.4692 13.7893C37.2742 17.4077 35.5562 23.3245 38.7848 26.405C39.0959 26.7029 39.5784 26.2317 39.2628 25.9338C36.431 23.2356 37.883 18.0479 38.8524 14.8162C39.6912 12.0156 41.9683 8.29492 40.4307 5.35205C39.2312 3.05835 36.4807 4.9209 35.3127 6.26343C33.5858 8.25049 33.004 10.9221 33.6398 13.4426C33.748 13.8604 34.3974 13.6826 34.2937 13.2646Z" fill="#46A358" fill-opacity="1.000000" fill-rule="nonzero"/>
		<path id="Vector" d="M48.5877 24.0623C48.9755 23.2131 49.7601 22.0129 50.8107 21.8708C52.4115 21.6528 53.2367 23.6355 52.3799 24.9468C51.5728 26.1826 50.0352 27.0452 48.7095 27.574C46.5045 28.4497 45.0255 29.6589 43.4247 31.3882C43.1317 31.7039 43.6096 32.1794 43.9027 31.8594C44.8722 30.8059 45.8642 29.7122 47.1268 28.9832C48.1323 28.4009 49.3002 28.1741 50.3102 27.6052C51.5413 26.9072 53.5343 25.4004 53.6786 23.8801C53.7958 22.6531 52.4836 21.2307 51.2571 21.155C49.7781 21.0618 48.5427 22.5554 48.006 23.7288C47.8257 24.1111 48.4119 24.4534 48.5877 24.0623Z" fill="#46A358" fill-opacity="1.000000" fill-rule="nonzero"/>
		<path id="Vector" d="M23.3004 24.8357C23.4492 23.6667 23.8956 23.2356 24.6351 23.551C24.8966 23.5557 25.113 23.6489 25.2934 23.8311C25.6497 24.0623 25.8841 24.4045 26.0961 24.7646C26.4748 25.4092 26.6507 26.1604 26.9302 26.845C27.2864 27.7253 27.7554 28.4409 28.5626 28.9656C28.9278 29.2056 29.266 28.6277 28.9053 28.3877C26.9212 27.0896 27.4758 23.72 24.9958 22.9021C23.5078 22.4131 22.0107 23.6846 22.7187 25.1692C22.9036 25.5603 23.4852 25.2227 23.3004 24.8357Z" fill="#46A358" fill-opacity="1.000000" fill-rule="nonzero"/>
		<path id="Vector" d="M47.5327 7.58374C47.1809 5.66333 49.2326 4.13403 50.8018 5.53442C51.6675 6.30786 52.0012 7.73047 52.0057 8.8418C52.0148 10.3486 51.3158 11.6956 51.6134 13.207C51.6946 13.6294 52.3484 13.4514 52.2673 13.0291C51.893 11.1311 52.9662 9.31299 52.4837 7.34351C52.1951 6.16553 51.6089 4.85425 50.3734 4.40967C48.1459 3.61401 46.509 5.73877 46.8788 7.75708C46.96 8.17944 47.6093 8.00146 47.5327 7.58374Z" fill="#46A358" fill-opacity="1.000000" fill-rule="nonzero"/>
		<path id="Vector" d="M47.1944 11.98C48.2946 14.2605 48.8357 16.2607 48.7546 18.7903C48.741 19.2214 49.4174 19.217 49.4309 18.7903C49.5166 16.1318 48.9304 14.0293 47.7806 11.6467C47.5912 11.26 47.0095 11.5977 47.1944 11.98Z" fill="#46A358" fill-opacity="1.000000" fill-rule="nonzero"/>
		<path id="Vector" d="M64.735 10.073C65.3889 8.60156 66.6244 7.67236 68.0538 6.97461C68.4641 6.76123 68.888 6.58789 69.3299 6.44995C71.2373 7.09009 71.7198 7.97485 70.7773 9.11279C70.3264 9.81055 69.6726 10.4375 69.1089 11.0508C66.9626 13.3848 64.6449 15.5452 62.1964 17.5632C61.8627 17.8389 62.3407 18.3101 62.6744 18.0344C64.8884 16.2119 66.9942 14.2737 68.9601 12.1934C70.1416 10.9441 72.4097 9.09058 71.9137 7.1167C70.9261 3.20483 64.9786 7.86816 64.1489 9.7395C63.9775 10.1262 64.5637 10.4641 64.735 10.073Z" fill="#46A358" fill-opacity="1.000000" fill-rule="nonzero"/>
		<path id="Vector" d="M60.9158 19.9861C58.7559 21.5508 57.4437 23.8313 57.1957 26.4585C57.1552 26.8853 57.8315 26.8809 57.8721 26.4585C58.0975 24.0847 59.306 21.9731 61.2585 20.5596C61.6057 20.3105 61.2675 19.7283 60.9158 19.9861Z" fill="#46A358" fill-opacity="1.000000" fill-rule="nonzero"/>
		<path id="Vector" d="M65.195 31.1082C65.6369 30.8459 66.0788 30.5703 66.5432 30.3435C66.895 30.1523 67.2647 30.0056 67.6525 29.9036C68.3784 29.6057 68.6219 30.1614 68.3784 31.5706C67.9005 32.4995 65.3122 32.5352 64.5096 32.4861C62.503 32.3706 60.6136 31.8284 58.6342 32.4285C58.2193 32.553 58.3951 33.1975 58.8145 33.073C61.1909 32.3484 63.504 33.4019 65.9029 33.1396C67.2061 32.9929 69.0503 32.4019 69.6996 31.157C70.0604 30.4636 69.9747 29.5479 69.1856 29.1699C67.8915 28.552 65.8714 29.9211 64.8523 30.5303C64.4825 30.7571 64.8207 31.335 65.195 31.1082Z" fill="#46A358" fill-opacity="1.000000" fill-rule="nonzero"/>
		<path id="Vector" d="M55.1396 33.5886C51.6224 36.4026 50.3418 40.6699 49.9856 44.9731C49.9495 45.3999 50.6259 45.3999 50.662 44.9731C51.0046 40.8345 52.2357 36.7627 55.6176 34.0598C55.9557 33.7886 55.4733 33.322 55.1396 33.5886Z" fill="#46A358" fill-opacity="1.000000" fill-rule="nonzero"/>
		<path id="Vector" d="M40.0023 34.7222C38.9562 36.5093 38.9877 38.4563 39.2177 40.4568C39.4116 42.137 39.6325 43.7864 40.8094 45.0933C41.098 45.4133 41.576 44.9421 41.2874 44.6221C40.1331 43.3418 39.9888 41.5637 39.8354 39.9277C39.6731 38.2251 39.6957 36.5759 40.5885 35.0557C40.8049 34.6868 40.2232 34.3533 40.0023 34.7222Z" fill="#46A358" fill-opacity="1.000000" fill-rule="nonzero"/>
		<path id="Vector" d="M21.3433 30.3303C19.3864 30.3569 20.1619 32.3884 21.2081 33.1174C22.5157 34.0288 24.0037 34.6379 25.3926 35.407C27.0294 36.3137 27.6877 37.843 28.9458 39.1187C29.2479 39.4255 29.7259 38.9543 29.4238 38.6475C28.1747 37.3806 27.5705 35.8647 25.9607 34.958C25.149 34.5 24.2968 34.1133 23.4807 33.6731C23.0568 33.4465 22.6329 33.2197 22.2271 32.9663C22.0648 32.8687 21.8979 32.7664 21.7357 32.6685C20.9285 32.3662 20.8022 31.8105 21.3478 31.0015C21.7762 30.9927 21.7762 30.3259 21.3433 30.3303Z" fill="#46A358" fill-opacity="1.000000" fill-rule="nonzero"/>
		<path id="Vector" d="M72.2383 33.4021C72.2608 34.291 71.846 34.7756 70.9847 34.8601C70.5699 35.0247 70.1596 35.1846 69.7447 35.3491C69.127 35.5935 68.5047 35.8381 67.887 36.0825C66.444 36.6516 64.9966 37.2249 63.5536 37.7939C63.1523 37.9495 63.3282 38.5986 63.734 38.4385C65.3844 37.7852 67.0347 37.136 68.6851 36.4827C69.9071 35.998 71.4672 35.6514 72.554 34.8955C73.4964 34.2378 73.5234 32.873 72.2338 32.7351C71.8054 32.6863 71.8099 33.3577 72.2383 33.4021Z" fill="#46A358" fill-opacity="1.000000" fill-rule="nonzero"/>
		<path id="Vector" d="M62.0025 38.7185C60.1898 40.4077 58.7604 42.3904 57.7504 44.6396C57.5745 45.0264 58.1562 45.3687 58.3365 44.9775C59.3241 42.7815 60.7084 40.8435 62.485 39.1943C62.7961 38.8965 62.3182 38.4253 62.0025 38.7185Z" fill="#46A358" fill-opacity="1.000000" fill-rule="nonzero"/>
		<path id="Vector" d="M30.5511 41.6348C31.0696 42.3904 31.4033 43.2039 31.5612 44.1018C31.6333 44.5242 32.2871 44.3462 32.215 43.9241C32.0481 42.9771 31.6829 42.0925 31.1373 41.2969C30.8938 40.9456 30.3076 41.2791 30.5511 41.6348Z" fill="#46A358" fill-opacity="1.000000" fill-rule="nonzero"/>
	</g>
</svg>
