<svg width="83.000000" height="90.000000" viewBox="0 0 83 90" fill="none" xmlns="http://www.w3.org/2000/svg" xmlns:xlink="http://www.w3.org/1999/xlink">
	<desc>
			Created with Pixso.
	</desc>
	<defs>
		<clipPath id="clip5_1646">
			<rect id="Frame" width="68.000000" height="49.000000" transform="translate(15.000000 38.000000)" fill="white" fill-opacity="0"/>
		</clipPath>
		<clipPath id="clip5_1676">
			<rect id="Frame" width="35.000000" height="39.000000" transform="translate(31.000000 0.000000)" fill="white" fill-opacity="0"/>
		</clipPath>
	</defs>
	<circle id="Ellipse 10" cx="37.000000" cy="53.000000" r="37.000000" fill="#46A358" fill-opacity="0.130000"/>
	<rect id="Frame" width="68.000000" height="49.000000" transform="translate(15.000000 38.000000)" fill="#FFFFFF" fill-opacity="0"/>
	<g clip-path="url(#clip5_1646)">
		<path id="Vector" d="M22.2488 40.7766C39.0215 39.0237 55.9382 41.7144 72.6698 39.29C73.4514 39.1753 73.1182 37.9917 72.3407 38.1064C55.7284 40.5103 38.9063 37.8074 22.2488 39.5481C21.4672 39.6299 21.4589 40.8584 22.2488 40.7766Z" fill="#727272" fill-opacity="1.000000" fill-rule="nonzero"/>
		<path id="Vector" d="M22.0843 39.5728C20.4469 40.0806 20.6526 42.2102 21.5207 43.3403C22.9441 45.1914 26.1407 45.2324 28.2264 45.0359C29.0122 44.9622 29.0163 43.7336 28.2264 43.8074C26.8771 43.9343 25.4783 43.9219 24.166 43.5369C23.483 43.3362 22.7631 43.0537 22.3723 42.4148C22.1707 42.0833 21.784 40.9529 22.4134 40.7603C23.1704 40.5229 22.8454 39.3352 22.0843 39.5728Z" fill="#727272" fill-opacity="1.000000" fill-rule="nonzero"/>
		<path id="Vector" d="M69.7818 39.6748C70.6498 39.6216 71.4891 39.4741 72.353 39.3594C73.723 39.1753 74.4265 39.5437 74.6651 40.9771C74.8625 42.1689 74.1097 42.5168 73.0483 42.8528C72.5464 43.0125 72.0198 43.1108 71.5014 43.2131C70.115 43.4834 68.7245 43.6187 67.3134 43.6677C66.5235 43.6963 66.5194 44.925 67.3134 44.8962C69.7201 44.8103 76.4793 44.7202 76.216 40.9321C76.1502 39.9861 75.2328 38.6797 74.373 38.2537C73.0894 37.615 71.09 38.3643 69.7776 38.4463C68.9919 38.4954 68.9878 39.7239 69.7818 39.6748Z" fill="#727272" fill-opacity="1.000000" fill-rule="nonzero"/>
		<path id="Vector" d="M24.0549 44.7734C23.8862 47.374 20.9241 48.8442 19.3526 50.6299C18.1184 52.0344 17.1475 53.6521 16.444 55.3762C14.9301 59.0701 14.6421 63.2104 15.4114 67.1052C16.9953 75.095 23.0593 81.6885 30.6331 84.5183C31.3778 84.7966 31.6987 83.6091 30.9622 83.3347C23.0963 80.3943 16.9829 73.0269 16.3 64.5784C15.975 60.5649 16.8266 56.3877 19.077 53.0093C20.9447 50.208 25.0546 48.4143 25.2891 44.7734C25.3384 43.9873 24.1042 43.9873 24.0549 44.7734Z" fill="#727272" fill-opacity="1.000000" fill-rule="nonzero"/>
		<path id="Vector" d="M70.8226 44.2493C70.8226 47.4805 73.18 49.5076 75.5784 51.3137C77.6395 52.8616 79.2357 54.3687 80.2519 56.7971C81.1364 58.9062 81.626 61.1833 81.737 63.4644C82.1402 71.8555 77.2446 79.6448 69.7201 83.3101C69.0084 83.6582 69.6296 84.7188 70.3413 84.3706C77.331 80.9675 82.2595 74.0505 82.9177 66.3022C83.251 62.3831 82.5681 58.0667 80.5687 54.6309C78.3677 50.8428 72.0568 49.1062 72.0527 44.2493C72.0568 43.459 70.8226 43.459 70.8226 44.2493Z" fill="#727272" fill-opacity="1.000000" fill-rule="nonzero"/>
		<path id="Vector" d="M30.267 83.6172C29.4689 85.3823 30.9005 86.9058 32.6778 86.9875C34.6072 87.0818 36.6436 86.6355 38.5772 86.5535C40.8193 86.4553 43.0615 86.4512 45.3036 86.4839C53.6714 86.6108 62.0351 87.2456 70.3659 86.1155C70.6498 86.0786 70.7938 85.7673 70.8185 85.5215C70.8843 84.8335 70.8267 84.3257 70.6251 83.6787C70.3906 82.925 69.2017 83.2488 69.4362 84.0063C69.646 84.5017 69.6954 85.0095 69.5843 85.5215C69.7365 85.325 69.8846 85.1284 70.0368 84.9277C63.5408 85.8081 56.9873 85.5872 50.4543 85.3823C47.2865 85.2839 44.1146 85.1938 40.9469 85.2471C39.4987 85.2717 38.0506 85.3291 36.6025 85.4272C35.8126 85.4807 35.0269 85.5542 34.2411 85.6321C33.661 85.6895 30.4439 86.1851 31.3284 84.2275C31.6534 83.519 30.592 82.8965 30.267 83.6172Z" fill="#727272" fill-opacity="1.000000" fill-rule="nonzero"/>
		<path id="Vector" d="M22.0802 51.2236C17.0529 57.3789 16.662 65.9707 21.1751 72.5232C21.3972 72.8467 21.9321 72.5396 21.7099 72.2119C17.3614 65.9011 17.6617 57.6042 22.5204 51.6538C22.7631 51.3547 22.3311 50.9165 22.0802 51.2236Z" fill="#727272" fill-opacity="1.000000" fill-rule="nonzero"/>
		<path id="Vector" d="M22.4134 74.8042C22.8166 75.3857 23.2773 75.9224 23.7916 76.4097C24.0796 76.6799 24.5156 76.25 24.2277 75.9756C23.7504 75.5251 23.3226 75.0337 22.9441 74.4971C22.722 74.1736 22.1871 74.4766 22.4134 74.8042Z" fill="#727272" fill-opacity="1.000000" fill-rule="nonzero"/>
		<path id="Vector" d="M25.865 78.3384C26.2641 78.3384 26.2641 77.7241 25.865 77.7241C25.466 77.7241 25.466 78.3384 25.865 78.3384Z" fill="#727272" fill-opacity="1.000000" fill-rule="nonzero"/>
		<path id="Vector" d="M69.6296 44.2822C69.3128 45.4617 69.0413 46.6494 69.5061 47.8289C69.9381 48.9221 70.8144 49.9092 71.559 50.8142C73.3445 52.9766 76.9977 55.1592 77.1705 58.1733C77.1911 58.5667 77.8082 58.5706 77.7876 58.1733C77.6601 55.917 75.9898 54.4712 74.4512 53.0051C73.4597 52.0591 72.5258 51.0559 71.6701 49.9829C71.0941 49.2581 70.4441 48.4922 70.1109 47.6199C69.7036 46.5593 69.9381 45.5149 70.222 44.4502C70.3248 44.0652 69.7283 43.9014 69.6296 44.2822Z" fill="#727272" fill-opacity="1.000000" fill-rule="nonzero"/>
		<path id="Vector" d="M77.4379 59.5984C77.5243 60.3848 77.6107 61.1711 77.6971 61.9573C77.7382 62.3464 78.3594 62.3506 78.3141 61.9573C78.2278 61.1711 78.1414 60.3848 78.055 59.5984C78.0138 59.2095 77.3967 59.2053 77.4379 59.5984Z" fill="#727272" fill-opacity="1.000000" fill-rule="nonzero"/>
		<path id="Vector" d="M77.4955 63.575C77.5408 63.8042 77.5037 64.0212 77.4173 64.2344C77.3556 64.3899 77.4873 64.5701 77.6313 64.6111C77.8082 64.6602 77.948 64.5496 78.0098 64.3982C78.1373 64.0786 78.1537 63.7471 78.0879 63.4111C78.018 63.0261 77.4214 63.1899 77.4955 63.575Z" fill="#727272" fill-opacity="1.000000" fill-rule="nonzero"/>
		<path id="Vector" d="M50.7423 59.0825C52.2151 56.2976 54.9879 54.4753 58.2092 54.635C62.0434 54.8235 66.0751 58.1448 63.3887 62.0679C61.813 64.3655 58.9826 65.8521 56.8968 67.6621C54.5806 69.6729 52.4619 71.8884 50.5078 74.2556C50.0059 74.8616 50.8739 75.7339 51.3799 75.1238C54.3585 71.5159 57.7278 68.4648 61.4304 65.6145C63.9029 63.7061 66.6387 60.8108 65.1371 57.4568C63.8947 54.6802 60.4636 53.3164 57.5715 53.3982C54.1651 53.4966 51.2442 55.4951 49.6726 58.46C49.3065 59.1604 50.372 59.7827 50.7423 59.0825Z" fill="#727272" fill-opacity="1.000000" fill-rule="nonzero"/>
		<path id="Vector" d="M50.4502 58.1282C47.8131 55.1755 44.5219 52.1328 40.2516 52.354C37.0838 52.5178 34.3563 54.9094 33.8996 58.0586C33.336 61.896 36.2158 65.2622 39.0215 67.4858C42.469 70.2175 47.6691 71.1636 50.2486 74.8657C50.697 75.5127 51.7666 74.8984 51.3141 74.2473C49.7055 71.9375 47.3647 70.75 44.8798 69.554C41.7203 68.0347 38.606 66.155 36.5737 63.2227C34.3069 59.9587 34.6813 54.9668 39.075 53.7708C43.3741 52.6038 46.9944 56.1094 49.5739 58.9963C50.1046 59.5903 50.9767 58.718 50.4502 58.1282Z" fill="#727272" fill-opacity="1.000000" fill-rule="nonzero"/>
	</g>
	<rect id="Frame" width="35.000000" height="39.000000" transform="translate(31.000000 0.000000)" fill="#FFFFFF" fill-opacity="0"/>
	<g clip-path="url(#clip5_1676)">
		<path id="Vector" d="M46.4719 12.6289C45.2831 14.782 43.4689 16.5068 41.1405 17.3999C40.2313 17.7507 39.0342 17.7302 39.1535 16.4866C39.2276 15.7117 40.0668 15.0391 40.6756 14.676C41.7123 14.0562 43.041 13.8523 44.1559 13.3711C44.8799 13.0571 44.2546 12.001 43.5347 12.3149C41.5436 13.1753 39.3633 13.3794 38.232 15.467C37.6273 16.5845 37.4298 18.1382 38.7915 18.7742C40.2683 19.4634 42.3005 18.3501 43.5265 17.5671C45.2296 16.4824 46.5665 15.0022 47.5333 13.2446C47.92 12.5557 46.8545 11.9358 46.4719 12.6289Z" fill="#46A358" fill-opacity="1.000000" fill-rule="nonzero"/>
		<path id="Vector" d="M43.8967 12.1191C42.3992 12.2822 40.9142 12.2903 39.4291 12.0129C38.8861 11.9111 38.3472 11.7725 37.8206 11.6052C37.3763 11.4749 36.9485 11.3157 36.5248 11.124C35.8954 10.333 35.9571 9.89258 36.7181 9.79468C38.9478 8.09009 42.4322 9.88037 44.6207 10.708C45.3653 10.9895 45.6862 9.80688 44.9498 9.52954C43.0451 8.80786 40.9553 7.72314 38.8614 7.95557C37.6602 8.08618 34.8916 8.604 34.5707 10.1006C33.8303 13.5667 42.1071 13.5422 43.8967 13.3464C44.6783 13.2568 44.6865 12.0334 43.8967 12.1191Z" fill="#46A358" fill-opacity="1.000000" fill-rule="nonzero"/>
		<path id="Vector" d="M45.353 9.55005C43.4812 8.07812 41.8192 5.78638 41.9097 3.30298C41.9509 2.19775 42.6584 1.729 43.6828 2.22632C44.2463 2.49951 44.6371 3.19702 44.9457 3.7229C45.6615 4.95435 45.9618 6.36133 46.2251 7.74365C46.3732 8.5144 47.562 8.18823 47.414 7.41748C47.019 5.354 46.4554 3.20508 44.9169 1.66357C44.0078 0.754395 42.4939 -0.289551 41.4243 0.933838C38.9231 3.79224 42.1977 8.61621 44.4808 10.4146C45.0979 10.8999 45.9782 10.0396 45.353 9.55005Z" fill="#46A358" fill-opacity="1.000000" fill-rule="nonzero"/>
		<path id="Vector" d="M47.3852 7.75586C47.6567 5.79028 48.5206 2.05103 50.7996 1.41479C52.9182 0.827637 52.7084 4.2041 52.116 5.32153C51.5195 6.44702 50.3471 7.50293 49.4955 8.44507C48.969 9.02808 49.837 9.89673 50.3676 9.30957C51.5894 7.95557 53.416 6.4021 53.6792 4.4978C53.8849 3.02148 53.7738 0.791016 52.1324 0.138672C50.635 -0.456787 49.1541 0.896973 48.3025 1.96143C47.0478 3.5271 46.4637 5.46826 46.1922 7.42139C46.0852 8.20044 47.2741 8.53467 47.3852 7.75586Z" fill="#46A358" fill-opacity="1.000000" fill-rule="nonzero"/>
		<path id="Vector" d="M50.454 9.4646C51.8897 8.27393 54.5555 7.44629 56.3079 8.51855C58.5787 9.91333 55.3618 10.7493 54.3004 10.8186C53.165 10.896 52.0296 10.8267 50.9024 10.6963C50.1167 10.6064 50.1208 11.8298 50.9024 11.9194C52.7454 12.1316 55.2342 12.4048 56.9497 11.4995C58.0152 10.9368 58.7803 9.57471 58.1262 8.42896C57.394 7.14453 55.333 6.83447 53.996 6.87134C52.3381 6.92017 50.8448 7.5564 49.586 8.6001C48.9731 9.10596 49.8493 9.97046 50.454 9.4646Z" fill="#46A358" fill-opacity="1.000000" fill-rule="nonzero"/>
		<path id="Vector" d="M50.5857 11.8787C51.8568 12.3435 53.1198 13.0449 53.8438 14.2275C54.7488 15.7117 54.7694 18.4438 52.1366 17.9341C49.8205 17.4856 48.1462 15.0471 47.6731 12.9307C47.5003 12.1641 46.3115 12.4861 46.4843 13.2568C46.9038 15.1409 47.9529 16.8047 49.5243 17.9585C50.7585 18.8679 52.9264 19.9526 54.3786 18.9209C55.8719 17.8608 55.8719 15.667 55.1972 14.1582C54.3991 12.3801 52.7002 11.3484 50.923 10.696C50.1661 10.427 49.8452 11.6094 50.5857 11.8787Z" fill="#46A358" fill-opacity="1.000000" fill-rule="nonzero"/>
		<path id="Vector" d="M38.1045 15.2471C34.5008 17.4001 31.8433 19.7979 31.2139 24.1121C30.5269 28.7976 31.6253 33.6948 32.629 38.2581C32.7977 39.0286 33.9866 38.7024 33.8179 37.9316C32.9294 33.8948 32.0202 29.7109 32.2958 25.5557C32.5961 21.0251 34.9657 18.55 38.7215 16.3071C39.4044 15.8994 38.7874 14.8391 38.1045 15.2471Z" fill="#46A358" fill-opacity="1.000000" fill-rule="nonzero"/>
		<path id="Vector" d="M54.0083 13.8645C59.0477 14.2559 62.6143 18.2686 63.9678 22.8643C65.4405 27.8677 64.6178 33.1362 63.8156 38.1763C63.6922 38.947 64.881 39.2773 65.0045 38.5024C65.9424 32.5896 66.8844 26.3098 64.4614 20.6091C62.6267 16.2908 58.8173 13.0164 54.0083 12.6411C53.2144 12.5801 53.2185 13.8032 54.0083 13.8645Z" fill="#46A358" fill-opacity="1.000000" fill-rule="nonzero"/>
		<path id="Vector" d="M39.3263 17.7832C33.2996 22.1301 35.2536 31.9578 36.4713 38.0662C36.6235 38.8369 37.8165 38.5107 37.6602 37.74C37.0226 34.543 36.4302 31.3093 36.4919 28.0391C36.5536 24.8582 37.1583 20.8499 39.9474 18.8394C40.5851 18.3787 39.9721 17.3184 39.3263 17.7832Z" fill="#46A358" fill-opacity="1.000000" fill-rule="nonzero"/>
		<path id="Vector" d="M46.0934 13.8279C43.8514 17.249 42.4034 21.074 41.8768 25.1274C41.6012 27.252 41.5806 29.405 41.8357 31.5334C42.1113 33.8579 42.8641 36.0925 43.1438 38.417C43.2343 39.1875 44.4726 39.1997 44.378 38.417C43.8925 34.3594 42.642 30.6243 42.9711 26.4729C43.3125 22.1628 44.7935 18.0605 47.163 14.4436C47.5908 13.783 46.5254 13.1714 46.0934 13.8279Z" fill="#46A358" fill-opacity="1.000000" fill-rule="nonzero"/>
		<path id="Vector" d="M49.1088 17.6079C50.9477 20.6172 51.3344 24.0222 51.6552 27.4597C51.9885 31.0361 52.26 34.6162 52.4904 38.2007C52.5397 38.9836 53.7738 38.9878 53.7245 38.2007C53.4653 34.1433 53.1732 30.0859 52.7536 26.0408C52.4245 22.864 51.8692 19.7527 50.1743 16.988C49.7629 16.3193 48.6933 16.9309 49.1088 17.6079Z" fill="#46A358" fill-opacity="1.000000" fill-rule="nonzero"/>
		<path id="Vector" d="M54.7242 18.179C59.3192 23.9082 59.4714 31.2236 59.3069 38.2048C59.2904 38.9919 60.5246 38.9919 60.541 38.2048C60.7138 30.8403 60.4176 23.3291 55.5963 17.3145C55.1026 16.6987 54.2346 17.5713 54.7242 18.179Z" fill="#46A358" fill-opacity="1.000000" fill-rule="nonzero"/>
		<path id="Vector" d="M46.9532 19.6711C46.8833 19.9443 46.8175 20.2136 46.7475 20.4868C46.6529 20.8701 47.2453 21.0332 47.344 20.6499C47.414 20.3767 47.4798 20.1074 47.5497 19.8342C47.6443 19.4551 47.0519 19.292 46.9532 19.6711Z" fill="#46A358" fill-opacity="1.000000" fill-rule="nonzero"/>
		<path id="Vector" d="M48.2861 21.7957C48.2861 22.1016 48.2861 22.4075 48.2861 22.7131C48.2861 23.1086 48.9031 23.1086 48.9031 22.7131C48.9031 22.4075 48.9031 22.1016 48.9031 21.7957C48.9031 21.4001 48.2861 21.4001 48.2861 21.7957Z" fill="#46A358" fill-opacity="1.000000" fill-rule="nonzero"/>
		<path id="Vector" d="M45.3077 23.7329C45.2748 24.1731 45.2378 24.6177 45.2049 25.0581C45.1761 25.4495 45.7931 25.4495 45.8219 25.0581C45.8548 24.6177 45.8919 24.1731 45.9248 23.7329C45.9536 23.3413 45.3365 23.3413 45.3077 23.7329Z" fill="#46A358" fill-opacity="1.000000" fill-rule="nonzero"/>
		<path id="Vector" d="M49.3145 25.8735C49.3145 26.2812 49.3145 26.6892 49.3145 27.0969C49.3145 27.4924 49.9316 27.4924 49.9316 27.0969C49.9316 26.6892 49.9316 26.2812 49.9316 25.8735C49.9316 25.478 49.3145 25.478 49.3145 25.8735Z" fill="#46A358" fill-opacity="1.000000" fill-rule="nonzero"/>
		<path id="Vector" d="M46.9491 28.1162C46.9491 28.5566 46.9491 29.0012 46.9491 29.4414C46.9491 29.8372 47.5662 29.8372 47.5662 29.4414C47.5662 29.0012 47.5662 28.5566 47.5662 28.1162C47.5662 27.7207 46.9491 27.7207 46.9491 28.1162Z" fill="#46A358" fill-opacity="1.000000" fill-rule="nonzero"/>
		<path id="Vector" d="M45.6121 32.6018C45.6121 33.2136 45.6121 33.8252 45.6121 34.4368C45.6121 34.8323 46.2292 34.8323 46.2292 34.4368C46.2292 33.8252 46.2292 33.2136 46.2292 32.6018C46.2292 32.2063 45.6121 32.2063 45.6121 32.6018Z" fill="#46A358" fill-opacity="1.000000" fill-rule="nonzero"/>
		<path id="Vector" d="M43.7815 28.6016C43.8514 29.0095 43.9254 29.4172 43.9954 29.825C44.0612 30.2124 44.6577 30.0493 44.5919 29.6619C44.5219 29.2542 44.4479 28.8464 44.378 28.4385C44.308 28.0552 43.7115 28.2183 43.7815 28.6016Z" fill="#46A358" fill-opacity="1.000000" fill-rule="nonzero"/>
		<path id="Vector" d="M48.5 34.6409C48.5329 35.0486 48.5699 35.4563 48.6028 35.8643C48.6358 36.2556 49.2528 36.2556 49.2199 35.8643C49.187 35.4563 49.15 35.0486 49.1171 34.6409C49.0842 34.2493 48.463 34.2454 48.5 34.6409Z" fill="#46A358" fill-opacity="1.000000" fill-rule="nonzero"/>
		<path id="Vector" d="M50.3471 30.0532C50.38 30.4609 50.417 30.8687 50.4499 31.2766C50.4828 31.6638 51.0999 31.668 51.067 31.2766C51.0341 30.8687 50.997 30.4609 50.9641 30.0532C50.9312 29.6616 50.3141 29.6577 50.3471 30.0532Z" fill="#46A358" fill-opacity="1.000000" fill-rule="nonzero"/>
		<path id="Vector" d="M57.431 16.4011C57.9082 16.813 58.3854 17.2249 58.8626 17.6326C59.1629 17.8894 59.599 17.4573 59.2986 17.2002C58.8214 16.7886 58.3443 16.3767 57.8671 15.9688C57.5709 15.7119 57.1307 16.1401 57.431 16.4011Z" fill="#46A358" fill-opacity="1.000000" fill-rule="nonzero"/>
		<path id="Vector" d="M57.6902 19.8057C57.9576 20.283 58.2291 20.7642 58.4965 21.2412C58.6898 21.5837 59.2246 21.2778 59.0313 20.9312C58.7639 20.4541 58.4924 19.9729 58.225 19.4958C58.0275 19.1533 57.4968 19.4631 57.6902 19.8057Z" fill="#46A358" fill-opacity="1.000000" fill-rule="nonzero"/>
		<path id="Vector" d="M60.1625 20.0054C60.4669 20.4172 60.7714 20.8291 61.0758 21.2371C61.3062 21.551 61.8451 21.2451 61.6106 20.927C61.3062 20.5151 61.0018 20.1033 60.6973 19.6956C60.4628 19.3857 59.9281 19.6875 60.1625 20.0054Z" fill="#46A358" fill-opacity="1.000000" fill-rule="nonzero"/>
		<path id="Vector" d="M61.6846 25.3396C61.7875 26.0532 61.8944 26.7668 61.9973 27.4802C62.0549 27.8677 62.6473 27.7046 62.5938 27.3171C62.4909 26.6035 62.384 25.8899 62.2811 25.1765C62.2194 24.7891 61.627 24.9563 61.6846 25.3396Z" fill="#46A358" fill-opacity="1.000000" fill-rule="nonzero"/>
		<path id="Vector" d="M59.6113 23.5083C59.7142 23.8467 59.817 24.1892 59.9198 24.5278C60.035 24.9028 60.6274 24.7439 60.5163 24.3647C60.4135 24.0261 60.3107 23.6836 60.2078 23.3452C60.0926 22.97 59.4961 23.1292 59.6113 23.5083Z" fill="#46A358" fill-opacity="1.000000" fill-rule="nonzero"/>
		<path id="Vector" d="M62.8818 31.1746C62.927 31.6599 62.9188 32.1453 62.8406 32.6262C62.7789 33.0098 63.3713 33.1768 63.4371 32.7896C63.5235 32.2512 63.5523 31.717 63.5029 31.1746C63.4618 30.7874 62.8447 30.7832 62.8818 31.1746Z" fill="#46A358" fill-opacity="1.000000" fill-rule="nonzero"/>
		<path id="Vector" d="M61.4501 33.1116C61.4501 33.4868 61.4501 33.8579 61.4501 34.2329C61.4501 34.6284 62.0672 34.6284 62.0672 34.2329C62.0672 33.8579 62.0672 33.4868 62.0672 33.1116C62.0672 32.7161 61.4501 32.7161 61.4501 33.1116Z" fill="#46A358" fill-opacity="1.000000" fill-rule="nonzero"/>
		<path id="Vector" d="M62.0878 22.8928C62.2565 23.3005 62.4292 23.7083 62.5979 24.1162C62.6637 24.271 62.8036 24.3772 62.9764 24.3281C63.1204 24.2915 63.2561 24.104 63.1903 23.9531C63.0216 23.5452 62.8489 23.1375 62.6802 22.7297C62.6144 22.5747 62.4745 22.4688 62.3017 22.5176C62.1577 22.5544 62.0261 22.7419 62.0878 22.8928Z" fill="#46A358" fill-opacity="1.000000" fill-rule="nonzero"/>
		<path id="Vector" d="M60.9359 29.9512C60.9359 30.1877 60.9359 30.4282 60.9359 30.6648C60.9359 31.0603 61.553 31.0603 61.553 30.6648C61.553 30.4282 61.553 30.1877 61.553 29.9512C61.553 29.5557 60.9359 29.5557 60.9359 29.9512Z" fill="#46A358" fill-opacity="1.000000" fill-rule="nonzero"/>
		<path id="Vector" d="M62.1701 36.7817C62.1536 37.0713 62.0837 37.3486 61.9767 37.6177C61.915 37.7727 62.0467 37.9521 62.1906 37.9929C62.3675 38.0417 62.5074 37.9316 62.5691 37.7808C62.7007 37.4585 62.7666 37.1284 62.7871 36.7817C62.8118 36.3862 62.1947 36.3901 62.1701 36.7817Z" fill="#46A358" fill-opacity="1.000000" fill-rule="nonzero"/>
		<path id="Vector" d="M36.2903 18.8843C36.0805 19.186 35.8707 19.4878 35.6568 19.7896C35.4305 20.1157 35.9653 20.4216 36.1916 20.0996C36.4014 19.7979 36.6112 19.4961 36.8251 19.1943C37.0472 18.8679 36.5125 18.5623 36.2903 18.8843Z" fill="#46A358" fill-opacity="1.000000" fill-rule="nonzero"/>
		<path id="Vector" d="M34.5296 23.3452C34.4514 23.7163 34.3774 24.0874 34.2992 24.4626C34.2211 24.8459 34.8134 25.0132 34.8957 24.6257C34.9739 24.2546 35.0479 23.8835 35.1261 23.5083C35.2043 23.125 34.6078 22.9619 34.5296 23.3452Z" fill="#46A358" fill-opacity="1.000000" fill-rule="nonzero"/>
		<path id="Vector" d="M34.3322 21.1228C34.0072 21.551 33.7645 22.0239 33.5999 22.5337C33.4765 22.9089 34.073 23.0679 34.1964 22.6968C34.3486 22.2361 34.5749 21.8201 34.8669 21.4326C35.1056 21.1147 34.5667 20.813 34.3322 21.1228Z" fill="#46A358" fill-opacity="1.000000" fill-rule="nonzero"/>
		<path id="Vector" d="M33.0774 25.1804C33.0034 25.6899 32.9252 26.1956 32.8512 26.7053C32.7936 27.0886 33.3901 27.2559 33.4477 26.8684C33.5217 26.3589 33.5999 25.853 33.6739 25.3435C33.7315 24.9561 33.135 24.7888 33.0774 25.1804Z" fill="#46A358" fill-opacity="1.000000" fill-rule="nonzero"/>
		<path id="Vector" d="M33.6945 28.1162C33.6411 28.626 33.674 29.1277 33.7727 29.6292C33.8467 30.0166 34.4432 29.8535 34.3692 29.4661C34.2828 29.0176 34.2664 28.5688 34.3157 28.1162C34.3486 27.7249 33.7316 27.729 33.6945 28.1162Z" fill="#46A358" fill-opacity="1.000000" fill-rule="nonzero"/>
		<path id="Vector" d="M34.2005 31.9905C34.2334 32.2961 34.2704 32.6021 34.3034 32.908C34.3198 33.071 34.4309 33.2136 34.6119 33.2136C34.7641 33.2136 34.941 33.0752 34.9204 32.908C34.8875 32.6021 34.8505 32.2961 34.8176 31.9905C34.8011 31.8274 34.6901 31.6846 34.5091 31.6846C34.3568 31.6846 34.1841 31.8232 34.2005 31.9905Z" fill="#46A358" fill-opacity="1.000000" fill-rule="nonzero"/>
		<path id="Vector" d="M33.2008 34.29C33.4395 34.6775 33.6122 35.0852 33.7192 35.5298C33.8138 35.9131 34.4062 35.75 34.3157 35.3667C34.1964 34.8772 33.9989 34.4124 33.7356 33.9802C33.5258 33.6458 32.9951 33.9558 33.2008 34.29Z" fill="#46A358" fill-opacity="1.000000" fill-rule="nonzero"/>
		<path id="Vector" d="M34.5172 36.8633C34.5872 37.0344 34.653 37.2017 34.7229 37.373C34.7846 37.5239 34.9286 37.634 35.1014 37.585C35.2495 37.5442 35.3811 37.3647 35.3153 37.21C35.2454 37.0386 35.1796 36.8713 35.1096 36.7002C35.0479 36.5493 34.9039 36.4392 34.7312 36.488C34.5872 36.5249 34.4555 36.7083 34.5172 36.8633Z" fill="#46A358" fill-opacity="1.000000" fill-rule="nonzero"/>
	</g>
</svg>
