<svg width="90.000000" height="89.000000" viewBox="0 0 90 89" fill="none" xmlns="http://www.w3.org/2000/svg" xmlns:xlink="http://www.w3.org/1999/xlink">
	<desc>
			Created with Pixso.
	</desc>
	<defs>
		<clipPath id="clip5_1761">
			<rect id="Frame" width="44.000000" height="49.000000" transform="translate(31.000000 0.000000)" fill="white" fill-opacity="0"/>
		</clipPath>
		<clipPath id="clip5_1980">
			<rect id="Frame" width="83.000000" height="40.000000" transform="translate(7.000000 45.000000)" fill="white" fill-opacity="0"/>
		</clipPath>
	</defs>
	<circle id="Ellipse 11" cx="37.000000" cy="52.000000" r="37.000000" fill="#46A358" fill-opacity="0.130000"/>
	<rect id="Frame" width="44.000000" height="49.000000" transform="translate(31.000000 0.000000)" fill="#FFFFFF" fill-opacity="0"/>
	<g clip-path="url(#clip5_1761)">
		<path id="Vector" d="M51.3005 44.0271C51.3204 44.5112 51.4594 44.9692 51.7175 45.3816C51.9393 45.7415 52.5052 45.3979 52.2835 45.0413C52.0882 44.7239 51.979 44.387 51.9657 44.0173C51.9459 43.5952 51.284 43.6084 51.3005 44.0271Z" fill="#46A358" fill-opacity="1.000000" fill-rule="nonzero"/>
		<path id="Vector" d="M59.8093 43.9846C59.7762 44.1677 59.7398 44.3477 59.7067 44.531C59.6736 44.7043 59.7663 44.8843 59.945 44.9299C60.1105 44.9727 60.3157 44.8679 60.3487 44.6946C60.3818 44.5112 60.4182 44.3313 60.4513 44.1482C60.4844 43.9746 60.3918 43.7947 60.2131 43.749C60.0476 43.7065 59.8424 43.811 59.8093 43.9846Z" fill="#46A358" fill-opacity="1.000000" fill-rule="nonzero"/>
		<path id="Vector" d="M64.3401 44.6357C64.767 44.6257 64.7538 43.9714 64.3268 43.9812C63.8999 43.9912 63.9131 44.6455 64.3401 44.6357Z" fill="#46A358" fill-opacity="1.000000" fill-rule="nonzero"/>
		<path id="Vector" d="M39.4823 45.7937C39.9092 45.7837 39.896 45.1294 39.469 45.1392C39.0421 45.1492 39.0554 45.8035 39.4823 45.7937Z" fill="#46A358" fill-opacity="1.000000" fill-rule="nonzero"/>
		<path id="Vector" d="M51.5885 4.38721C49.0335 11.8369 47.6402 19.6399 47.488 27.5081C47.4118 31.4636 47.6468 35.4224 48.1929 39.3418C48.4444 41.1477 48.7621 42.9473 49.146 44.7302C49.4472 46.124 49.6027 47.7173 50.6486 48.7808C51.0953 49.2354 51.7804 48.5254 51.3369 48.074C50.2084 46.9255 50.0926 44.498 49.8013 42.9963C49.434 41.0986 49.1427 39.1848 48.9276 37.261C48.5205 33.623 48.3848 29.9587 48.5139 26.301C48.7754 18.9199 50.1554 11.6208 52.5515 4.62939C52.7567 4.03052 51.7903 3.79175 51.5885 4.38721Z" fill="#46A358" fill-opacity="1.000000" fill-rule="nonzero"/>
		<path id="Vector" d="M55.4407 4.52148C56.7778 11.9646 56.8109 19.5713 57.0789 27.106C57.2047 30.6458 57.4198 34.1956 57.347 37.7388C57.2709 41.4163 56.5461 44.8745 55.5698 48.4077C55.401 49.0195 56.3641 49.2585 56.5329 48.6499C57.4496 45.3423 58.1777 42.0771 58.3167 38.6353C58.4722 34.791 58.2108 30.9272 58.0751 27.0896C57.8037 19.4631 57.7475 11.7781 56.3939 4.24341C56.2813 3.62183 55.3282 3.90308 55.4407 4.52148Z" fill="#46A358" fill-opacity="1.000000" fill-rule="nonzero"/>
		<path id="Vector" d="M62.629 17.3103C63.0824 27.4951 63.4928 37.8042 60.9776 47.7795C60.822 48.3948 61.7851 48.6335 61.9406 48.0217C64.4757 37.9612 64.0819 27.5605 63.6219 17.2908C63.5921 16.6594 62.5992 16.6758 62.629 17.3103Z" fill="#46A358" fill-opacity="1.000000" fill-rule="nonzero"/>
		<path id="Vector" d="M59.8226 17.4607C58.416 19.0869 57.4761 20.9778 57.0624 23.0815C56.94 23.7 57.903 23.9453 58.0255 23.3237C58.4061 21.3804 59.2368 19.6462 60.5374 18.1414C60.9511 17.6604 60.2396 16.9797 59.8226 17.4607Z" fill="#46A358" fill-opacity="1.000000" fill-rule="nonzero"/>
		<path id="Vector" d="M69.6055 23.7163C69.5824 31.0908 68.5829 38.3965 66.6236 45.5125C66.4549 46.1243 67.4179 46.363 67.5867 45.7544C69.5658 38.5569 70.5752 31.1562 70.5984 23.6968C70.5984 23.0654 69.6055 23.085 69.6055 23.7163Z" fill="#46A358" fill-opacity="1.000000" fill-rule="nonzero"/>
		<path id="Vector" d="M67.719 21.5212C65.1509 24.4624 63.8899 28.0842 62.9831 31.8105C62.8342 32.4258 63.7973 32.6677 63.9462 32.0527C64.8133 28.5029 65.9849 25.012 68.4372 22.2017C68.8509 21.7239 68.136 21.0403 67.719 21.5212Z" fill="#46A358" fill-opacity="1.000000" fill-rule="nonzero"/>
		<path id="Vector" d="M43.7549 10.417C45.5221 14.533 46.8062 18.7991 47.6005 23.1995C47.713 23.8213 48.6629 23.5366 48.5537 22.9182C47.7594 18.5178 46.472 14.2515 44.708 10.1357C44.4598 9.56323 43.5067 9.83472 43.7549 10.417Z" fill="#46A358" fill-opacity="1.000000" fill-rule="nonzero"/>
		<path id="Vector" d="M41.9148 10.7734C41.3952 17.0193 40.8855 23.3433 41.9379 29.5662C43.04 36.0571 45.7472 42.3911 47.8289 48.6235C48.0274 49.2224 48.9806 48.9443 48.782 48.3423C46.7665 42.2996 44.1619 36.1553 42.997 29.8867C41.8254 23.5757 42.3781 17.1011 42.9076 10.7539C42.9606 10.1257 41.9677 10.1487 41.9148 10.7734Z" fill="#46A358" fill-opacity="1.000000" fill-rule="nonzero"/>
		<path id="Vector" d="M35.5969 25.8625C38.9097 28.9119 41.5937 32.4778 43.6059 36.4856C43.8905 37.0518 44.7345 36.5347 44.4532 35.9719C42.4046 31.8923 39.6577 28.2573 36.2853 25.1526C35.8186 24.7239 35.1303 25.4307 35.5969 25.8625Z" fill="#46A358" fill-opacity="1.000000" fill-rule="nonzero"/>
		<path id="Vector" d="M33.3233 27.1221C35.8882 34.6995 39.34 41.9363 43.6258 48.7087C43.9634 49.2454 44.8139 48.7349 44.4731 48.1951C40.2303 41.4915 36.8148 34.3396 34.2764 26.8408C34.0746 26.2454 33.1214 26.5203 33.3233 27.1221Z" fill="#46A358" fill-opacity="1.000000" fill-rule="nonzero"/>
		<path id="Vector" d="M39.0686 46.7622C37.6058 44.1775 35.4612 42.0281 32.7937 40.6604C32.251 40.3823 31.7314 40.4543 32.7838 40.3496C33.1677 40.3103 33.5649 40.2939 33.9488 40.3005C35.1998 40.3137 36.3316 40.5361 37.4072 41.2068C38.6582 41.9856 39.7503 43.1045 40.869 44.0564C41.3521 44.4688 42.0405 43.762 41.5573 43.3499C40.1409 42.1394 38.7376 40.6277 37.0001 39.8752C36.0304 39.4531 34.9813 39.3289 33.9289 39.3257C33.2604 39.3223 31.8704 39.198 31.3111 39.7607C30.2189 40.8535 32.3106 41.498 32.9625 41.8809C35.1998 43.1829 36.9604 45.0544 38.2213 47.2856C38.5324 47.8289 39.3797 47.3152 39.0686 46.7622Z" fill="#46A358" fill-opacity="1.000000" fill-rule="nonzero"/>
		<path id="Vector" d="M69.2811 38.7922C70.2508 36.6558 72.5046 35.9851 74.6492 35.5403C74.9636 35.4749 75.0893 35.0625 74.9305 34.814C73.7655 32.9949 71.6441 32.8083 69.6551 32.9883C69.023 33.0439 69.0362 34.0254 69.675 33.9697C71.2801 33.8259 73.1169 33.8162 74.0832 35.3276C74.1759 35.0854 74.2719 34.8433 74.3646 34.6013C71.9751 35.0952 69.483 35.9492 68.414 38.3147C68.1526 38.8872 69.0197 39.3682 69.2811 38.7922Z" fill="#46A358" fill-opacity="1.000000" fill-rule="nonzero"/>
		<path id="Vector" d="M35.4315 24.9138C34.9946 25.4832 34.5048 26.1931 33.78 26.4221C33.0652 26.6479 32.3007 26.324 32.3569 25.4702C32.3999 24.8027 32.9791 24.3152 33.5417 24.0371C34.197 23.7131 35.9941 23.5596 35.5175 24.8027C35.2925 25.3948 36.2555 25.6272 36.4806 25.0449C36.9406 23.844 35.8352 22.7939 34.6637 22.771C33.4325 22.748 31.9995 23.5562 31.5362 24.7112C31.1026 25.781 31.556 27.1191 32.7607 27.4233C34.2334 27.793 35.3487 26.6382 36.1496 25.5977C36.5302 25.094 35.8187 24.4102 35.4315 24.9138Z" fill="#46A358" fill-opacity="1.000000" fill-rule="nonzero"/>
		<path id="Vector" d="M43.9965 9.68091C43.3776 9.79541 42.4807 10.1946 41.8618 9.86743C41.2429 9.53711 41.3555 8.71582 41.7129 8.24146C42.0869 7.74731 42.676 7.56738 43.2717 7.73096C43.7549 7.86523 45.2607 9.11499 44.2116 9.54688C43.6291 9.78564 43.9038 10.7312 44.4962 10.489C45.7373 9.97876 45.6942 8.55884 44.8966 7.646C44.0924 6.72339 42.6528 6.37329 41.5772 7.04395C40.6373 7.63281 40.1144 8.91528 40.6241 9.94263C41.3455 11.4019 43.0334 10.8523 44.2811 10.6233C44.9066 10.5054 44.6186 9.56323 43.9965 9.68091Z" fill="#46A358" fill-opacity="1.000000" fill-rule="nonzero"/>
		<path id="Vector" d="M55.7916 3.6936C54.9311 3.91284 53.9283 4.17139 53.0414 3.95874C51.7937 3.66431 51.7474 2.25098 52.6244 1.51807C53.326 0.932373 54.4016 0.866943 55.2521 1.12207C55.7883 1.28247 56.4171 1.62915 56.5627 2.21167C56.7017 2.75806 56.4336 3.29785 55.8776 3.43188C55.2588 3.58252 55.5401 4.52466 56.1623 4.37427C57.6416 4.0144 57.9659 2.19189 57.0558 1.1189C56.0299 -0.0883789 53.9714 -0.294434 52.5913 0.373047C51.294 1.00122 50.503 2.68921 51.3668 3.97827C52.3662 5.47339 54.62 5.00244 56.0729 4.62939C56.6918 4.47559 56.4105 3.53345 55.7916 3.6936Z" fill="#46A358" fill-opacity="1.000000" fill-rule="nonzero"/>
		<path id="Vector" d="M62.8706 13.3418C61.4442 13.0898 59.8821 13.499 59.2301 14.896C58.7006 16.0278 59.2004 17.4968 60.4315 17.9221C61.6726 18.3508 63.5557 17.8208 64.2441 16.6824C64.9026 15.5862 64.4261 14.1958 63.3869 13.5415C62.8474 13.2012 62.3676 14.0618 62.9037 14.3987C63.5722 14.8174 63.7907 15.7695 63.2446 16.3813C62.7581 16.9277 61.7189 17.1599 61.014 17.0356C60.1072 16.8752 59.7564 15.9363 60.2098 15.1609C60.7062 14.3135 61.7288 14.137 62.629 14.2939C63.2545 14.4053 63.4994 13.4531 62.8706 13.3418Z" fill="#46A358" fill-opacity="1.000000" fill-rule="nonzero"/>
		<path id="Vector" d="M70.5653 18.7664C69.311 18.6846 67.5735 18.8613 67.2955 20.3794C67.0671 21.6226 68.4968 23.2649 69.5923 23.7068C72.7198 24.9663 73.3883 18.6846 70.691 18.8516C70.0556 18.8909 70.0721 19.8723 70.7109 19.833C71.5879 19.7773 71.3728 21.8289 71.1742 22.2344C70.7076 23.1995 69.814 22.8462 69.2249 22.2312C68.7715 21.7568 67.9574 20.916 68.4273 20.2354C68.8807 19.5811 69.8934 19.7053 70.5851 19.748C71.2239 19.7905 71.1974 18.8091 70.5653 18.7664Z" fill="#46A358" fill-opacity="1.000000" fill-rule="nonzero"/>
		<path id="Vector" d="M52.6376 6.177C52.5383 6.50732 52.4357 6.83789 52.3364 7.16821C52.214 7.57397 52.856 7.73096 52.9785 7.32861C53.0778 6.99805 53.1804 6.66772 53.2797 6.33716C53.4021 5.93164 52.7601 5.77441 52.6376 6.177Z" fill="#46A358" fill-opacity="1.000000" fill-rule="nonzero"/>
		<path id="Vector" d="M54.0508 6.23267C54.0541 6.45166 54.0607 6.66772 54.064 6.88696C54.0739 7.30908 54.7358 7.2959 54.7259 6.87378C54.7226 6.65454 54.716 6.43872 54.7127 6.21948C54.7061 5.79736 54.0442 5.81055 54.0508 6.23267Z" fill="#46A358" fill-opacity="1.000000" fill-rule="nonzero"/>
		<path id="Vector" d="M53.5808 10.1685C54.0078 10.1584 53.9945 9.50415 53.5676 9.51392C53.144 9.52051 53.1572 10.1748 53.5808 10.1685Z" fill="#46A358" fill-opacity="1.000000" fill-rule="nonzero"/>
		<path id="Vector" d="M51.605 10.5347C51.5752 10.8979 51.5455 11.2642 51.519 11.6274C51.5057 11.8042 51.6911 11.9514 51.8566 11.948C52.0518 11.9448 52.1676 11.791 52.1809 11.6143C52.2107 11.2512 52.2405 10.8848 52.2669 10.5215C52.2802 10.345 52.0948 10.1978 51.9294 10.2009C51.7341 10.2043 51.6183 10.3579 51.605 10.5347Z" fill="#46A358" fill-opacity="1.000000" fill-rule="nonzero"/>
		<path id="Vector" d="M53.1705 11.5947C53.1804 11.9939 53.187 12.3928 53.1969 12.7954C53.2069 13.2173 53.8688 13.2043 53.8588 12.7822C53.8489 12.3831 53.8423 11.9839 53.8324 11.5815C53.8224 11.1594 53.1605 11.1726 53.1705 11.5947Z" fill="#46A358" fill-opacity="1.000000" fill-rule="nonzero"/>
		<path id="Vector" d="M54.342 9.27856C54.385 9.60571 54.4281 9.93286 54.4711 10.2568C54.4943 10.4336 54.6167 10.5808 54.8087 10.5774C54.9708 10.5742 55.1562 10.4204 55.133 10.2437C55.09 9.9165 55.0469 9.58936 55.0039 9.26538C54.9808 9.08887 54.8583 8.94165 54.6664 8.94482C54.5009 8.94824 54.3155 9.10181 54.342 9.27856Z" fill="#46A358" fill-opacity="1.000000" fill-rule="nonzero"/>
		<path id="Vector" d="M54.438 14.186C54.4413 14.3691 54.4446 14.5491 54.4479 14.7324C54.4578 15.1543 55.1197 15.1414 55.1098 14.7192C55.1065 14.5361 55.1032 14.356 55.0999 14.1729C55.09 13.7507 54.428 13.7639 54.438 14.186Z" fill="#46A358" fill-opacity="1.000000" fill-rule="nonzero"/>
		<path id="Vector" d="M53.005 8.86963C52.9719 9.19336 53.0447 9.49756 53.1804 9.79224C53.2532 9.95239 53.4981 9.98511 53.6371 9.90015C53.8059 9.79858 53.8191 9.61206 53.7463 9.44849C53.6603 9.26221 53.647 9.05591 53.6669 8.85303C53.6834 8.67651 53.4915 8.5293 53.3293 8.53247C53.1341 8.53906 53.0215 8.69287 53.005 8.86963Z" fill="#46A358" fill-opacity="1.000000" fill-rule="nonzero"/>
		<path id="Vector" d="M50.6949 14.0649C50.6287 14.4312 50.5626 14.7944 50.4964 15.1609C50.4202 15.573 51.0623 15.7366 51.1384 15.321C51.2046 14.9548 51.2708 14.5916 51.337 14.2251C51.4098 13.813 50.7711 13.6494 50.6949 14.0649Z" fill="#46A358" fill-opacity="1.000000" fill-rule="nonzero"/>
		<path id="Vector" d="M52.5185 16.3223C52.4887 16.5776 52.4556 16.8328 52.4258 17.0879C52.406 17.2646 52.4755 17.438 52.6641 17.4871C52.8196 17.5264 53.0447 17.4282 53.0679 17.2515C53.0976 16.9963 53.1307 16.7412 53.1605 16.4858C53.1804 16.3093 53.1109 16.136 52.9222 16.0869C52.7667 16.0442 52.5416 16.1458 52.5185 16.3223Z" fill="#46A358" fill-opacity="1.000000" fill-rule="nonzero"/>
		<path id="Vector" d="M51.936 20.9783C51.9889 21.2563 51.9558 21.5278 51.8665 21.7927C51.7308 22.1919 52.3728 22.3523 52.5085 21.9531C52.6376 21.5735 52.6475 21.1843 52.5714 20.7917C52.5383 20.6182 52.3199 20.5234 52.161 20.5725C51.9724 20.6282 51.8996 20.8047 51.936 20.9783Z" fill="#46A358" fill-opacity="1.000000" fill-rule="nonzero"/>
		<path id="Vector" d="M49.9139 18.3379C49.8841 18.593 49.851 18.8484 49.8212 19.1035C49.8013 19.28 49.8708 19.4536 50.0595 19.5027C50.215 19.542 50.4401 19.4438 50.4632 19.2671C50.493 19.012 50.5261 18.7566 50.5559 18.5015C50.5758 18.3247 50.5063 18.1514 50.3176 18.1023C50.1588 18.063 49.9337 18.1611 49.9139 18.3379Z" fill="#46A358" fill-opacity="1.000000" fill-rule="nonzero"/>
		<path id="Vector" d="M54.4214 18.8579C54.5008 19.2212 54.577 19.5842 54.6564 19.9441C54.7458 20.3564 55.3812 20.1665 55.2918 19.7576C55.2124 19.3945 55.1363 19.0312 55.0569 18.6714C54.9675 18.2593 54.3354 18.4458 54.4214 18.8579Z" fill="#46A358" fill-opacity="1.000000" fill-rule="nonzero"/>
		<path id="Vector" d="M54.855 23.6675C54.8616 24.0305 54.8715 24.3938 54.8781 24.7568C54.8881 25.179 55.55 25.1658 55.54 24.7437C55.5334 24.3806 55.5235 24.0176 55.5169 23.6543C55.5103 23.2322 54.8484 23.2454 54.855 23.6675Z" fill="#46A358" fill-opacity="1.000000" fill-rule="nonzero"/>
		<path id="Vector" d="M54.0739 28.4639C54.117 28.719 54.1567 28.9709 54.1997 29.2261C54.2295 29.3994 54.4545 29.4912 54.6101 29.4453C54.7987 29.3896 54.8616 29.2129 54.8318 29.0396C54.7888 28.7844 54.7491 28.5325 54.7061 28.2773C54.6763 28.104 54.4512 28.0122 54.2957 28.0581C54.107 28.1104 54.0442 28.2871 54.0739 28.4639Z" fill="#46A358" fill-opacity="1.000000" fill-rule="nonzero"/>
		<path id="Vector" d="M51.3733 26.0295C51.3766 26.2488 51.3833 26.4646 51.3866 26.6838C51.3965 27.106 52.0584 27.0928 52.0485 26.6707C52.0452 26.4514 52.0386 26.2356 52.0352 26.0164C52.0286 25.5942 51.3667 25.6074 51.3733 26.0295Z" fill="#46A358" fill-opacity="1.000000" fill-rule="nonzero"/>
		<path id="Vector" d="M49.5498 23.2288C49.573 23.5005 49.5465 23.7556 49.4671 24.0173C49.3447 24.4231 49.9867 24.5801 50.1092 24.1777C50.2051 23.8669 50.2382 23.5398 50.2118 23.2158C50.1753 22.8003 49.5134 22.8101 49.5498 23.2288Z" fill="#46A358" fill-opacity="1.000000" fill-rule="nonzero"/>
		<path id="Vector" d="M50.3805 30.7605C50.3474 31.0156 50.3176 31.271 50.2846 31.5261C50.2614 31.7026 50.3342 31.8762 50.5228 31.9253C50.6784 31.9646 50.9034 31.8662 50.9266 31.6897C50.9597 31.4346 50.9895 31.1792 51.0226 30.9241C51.0457 30.7473 50.9729 30.574 50.7843 30.5249C50.6254 30.4856 50.4037 30.5837 50.3805 30.7605Z" fill="#46A358" fill-opacity="1.000000" fill-rule="nonzero"/>
		<path id="Vector" d="M53.7562 34.467C53.7993 34.6831 53.839 34.9023 53.882 35.1182C53.9151 35.2915 54.1335 35.3865 54.2924 35.3374C54.4777 35.2817 54.5472 35.1052 54.5141 34.9316C54.4711 34.7158 54.4314 34.4966 54.3884 34.2808C54.3553 34.1072 54.1368 34.0125 53.978 34.0615C53.7926 34.1172 53.7231 34.2937 53.7562 34.467Z" fill="#46A358" fill-opacity="1.000000" fill-rule="nonzero"/>
		<path id="Vector" d="M51.9657 38.2131C52.0452 38.5764 52.1279 38.9363 52.2073 39.2993C52.3 39.7117 52.9321 39.5217 52.8428 39.1128C52.7633 38.7498 52.6806 38.3899 52.6012 38.0266C52.5085 37.6145 51.8731 37.801 51.9657 38.2131Z" fill="#46A358" fill-opacity="1.000000" fill-rule="nonzero"/>
		<path id="Vector" d="M55.6592 40.5818C55.5897 40.8369 55.5235 41.0923 55.454 41.3506C55.3448 41.7595 55.9868 41.9199 56.096 41.511C56.1655 41.2559 56.2317 41.0005 56.3012 40.7422C56.4104 40.3333 55.7684 40.1729 55.6592 40.5818Z" fill="#46A358" fill-opacity="1.000000" fill-rule="nonzero"/>
		<path id="Vector" d="M55.1661 12.187C55.2091 12.4421 55.2521 12.6941 55.2952 12.9492C55.3249 13.1226 55.55 13.2144 55.7055 13.1685C55.8942 13.1128 55.9571 12.9363 55.9273 12.7627C55.8843 12.5076 55.8412 12.2556 55.7982 12.0005C55.7684 11.8271 55.5434 11.7354 55.3878 11.7812C55.2025 11.8369 55.1363 12.0134 55.1661 12.187Z" fill="#46A358" fill-opacity="1.000000" fill-rule="nonzero"/>
		<path id="Vector" d="M55.2455 16.679C55.2918 17.0061 55.3382 17.3301 55.3845 17.6572C55.411 17.8306 55.5268 17.9812 55.7221 17.9778C55.8842 17.9746 56.0696 17.8208 56.0464 17.644C56.0001 17.3169 55.9537 16.9932 55.9074 16.6658C55.8809 16.4924 55.7651 16.342 55.5698 16.3452C55.4076 16.3486 55.219 16.5056 55.2455 16.679Z" fill="#46A358" fill-opacity="1.000000" fill-rule="nonzero"/>
		<path id="Vector" d="M60.2098 20.3108C60.1204 20.8242 60.0278 21.3347 59.9384 21.8484C59.8656 22.2605 60.5077 22.4241 60.5805 22.0088C60.6698 21.4951 60.7625 20.9846 60.8519 20.4709C60.9247 20.0588 60.2826 19.8953 60.2098 20.3108Z" fill="#46A358" fill-opacity="1.000000" fill-rule="nonzero"/>
		<path id="Vector" d="M61.4972 19.3882C61.5038 19.6433 61.5071 19.8984 61.5137 20.1504C61.5237 20.5725 62.1856 20.5593 62.1756 20.1372C62.169 19.8821 62.1657 19.627 62.1591 19.375C62.1492 18.9529 61.4906 18.9661 61.4972 19.3882Z" fill="#46A358" fill-opacity="1.000000" fill-rule="nonzero"/>
		<path id="Vector" d="M61.1364 22.8855C61.0736 23.4319 61.014 23.978 60.9511 24.5244C60.9048 24.9434 61.5667 24.9236 61.613 24.5115C61.6759 23.9651 61.7355 23.4187 61.7984 22.8723C61.8447 22.4568 61.1828 22.4731 61.1364 22.8855Z" fill="#46A358" fill-opacity="1.000000" fill-rule="nonzero"/>
		<path id="Vector" d="M59.4221 23.844C59.2798 24.1384 59.1408 24.4329 58.9985 24.7239C58.8165 25.1035 59.3957 25.4241 59.5777 25.0413C59.72 24.7468 59.859 24.4524 60.0013 24.1611C60.1833 23.7817 59.6042 23.4612 59.4221 23.844Z" fill="#46A358" fill-opacity="1.000000" fill-rule="nonzero"/>
		<path id="Vector" d="M58.4259 22.0938C58.3399 22.3162 58.2571 22.5354 58.1711 22.7578C58.1082 22.9248 58.2505 23.1145 58.4094 23.157C58.598 23.2061 58.747 23.085 58.8131 22.9214C58.8992 22.699 58.9819 22.4797 59.068 22.2573C59.1309 22.0903 58.9885 21.9006 58.8297 21.8582C58.641 21.8091 58.4921 21.9268 58.4259 22.0938Z" fill="#46A358" fill-opacity="1.000000" fill-rule="nonzero"/>
		<path id="Vector" d="M60.3157 26.3926C60.3025 26.6836 60.2925 26.9749 60.2793 27.2661C60.2627 27.688 60.9247 27.6716 60.9412 27.2529C60.9544 26.9617 60.9644 26.6707 60.9776 26.3794C60.9941 25.9573 60.3322 25.9736 60.3157 26.3926Z" fill="#46A358" fill-opacity="1.000000" fill-rule="nonzero"/>
		<path id="Vector" d="M61.6726 28.1104C61.6593 28.3818 61.6461 28.6567 61.6328 28.9282C61.6229 29.105 61.8016 29.2522 61.9704 29.249C62.1591 29.2456 62.2848 29.0918 62.2948 28.9153C62.308 28.6436 62.3212 28.3689 62.3345 28.0972C62.3444 27.9207 62.1657 27.7734 61.9969 27.7766C61.8083 27.78 61.6825 27.9336 61.6726 28.1104Z" fill="#46A358" fill-opacity="1.000000" fill-rule="nonzero"/>
		<path id="Vector" d="M61.1497 31.0349C61.1199 31.2705 61.0868 31.5095 61.057 31.7449C61.0339 31.9185 61.11 32.095 61.2953 32.144C61.4542 32.1833 61.6759 32.0852 61.6991 31.9084C61.7288 31.6731 61.7619 31.4341 61.7917 31.1985C61.8149 31.0251 61.7388 30.8486 61.5534 30.7996C61.3946 30.7568 61.1729 30.8584 61.1497 31.0349Z" fill="#46A358" fill-opacity="1.000000" fill-rule="nonzero"/>
		<path id="Vector" d="M58.6808 29.0132C58.6477 29.2129 58.6146 29.4158 58.5815 29.6152C58.5517 29.7886 58.6377 29.9653 58.8198 30.0144C58.9819 30.0537 59.1937 29.9521 59.2235 29.7788C59.2566 29.5793 59.2897 29.3765 59.3228 29.1768C59.3526 29.0034 59.2665 28.8269 59.0845 28.7778C58.9224 28.7351 58.7105 28.8367 58.6808 29.0132Z" fill="#46A358" fill-opacity="1.000000" fill-rule="nonzero"/>
		<path id="Vector" d="M59.1573 34.2153C59.1606 34.3591 59.164 34.5063 59.1673 34.6504C59.1772 35.0725 59.8391 35.0593 59.8292 34.6372C59.8259 34.4934 59.8225 34.3462 59.8192 34.2021C59.8093 33.78 59.1474 33.7932 59.1573 34.2153Z" fill="#46A358" fill-opacity="1.000000" fill-rule="nonzero"/>
		<path id="Vector" d="M61.2953 36.1357C61.2986 36.2795 61.3019 36.4268 61.3052 36.5708C61.3151 36.9929 61.977 36.9797 61.9671 36.5576C61.9638 36.4138 61.9605 36.2666 61.9572 36.1226C61.9473 35.7004 61.2853 35.7136 61.2953 36.1357Z" fill="#46A358" fill-opacity="1.000000" fill-rule="nonzero"/>
		<path id="Vector" d="M59.389 40.1011C59.4155 40.3562 59.389 40.5918 59.3063 40.8337C59.25 41.0007 59.3824 41.1904 59.5445 41.2329C59.7299 41.2788 59.8887 41.1643 59.9483 40.9976C60.0476 40.7063 60.084 40.3955 60.0509 40.0911C60.031 39.9146 59.902 39.7673 59.7133 39.7705C59.5445 39.7705 59.3691 39.9243 59.389 40.1011Z" fill="#46A358" fill-opacity="1.000000" fill-rule="nonzero"/>
		<path id="Vector" d="M60.2065 18.6516C60.1204 18.8186 60.0311 18.9854 59.945 19.1489C59.7498 19.522 60.3256 19.8425 60.5242 19.4663C60.6102 19.2996 60.6996 19.1326 60.7857 18.969C60.9809 18.5959 60.4051 18.2754 60.2065 18.6516Z" fill="#46A358" fill-opacity="1.000000" fill-rule="nonzero"/>
		<path id="Vector" d="M43.04 12.4326C43.0996 12.7761 43.1625 13.1228 43.2221 13.4663C43.2518 13.6399 43.4769 13.7314 43.6324 13.6855C43.8211 13.6299 43.8873 13.4534 43.8542 13.28C43.7946 12.9363 43.7317 12.5896 43.6721 12.2461C43.6424 12.0728 43.4173 11.981 43.2618 12.0269C43.0731 12.0825 43.0069 12.259 43.04 12.4326Z" fill="#46A358" fill-opacity="1.000000" fill-rule="nonzero"/>
		<path id="Vector" d="M44.0262 14.595C44.1785 14.9548 44.334 15.3181 44.4863 15.678C44.5558 15.8416 44.7146 15.9526 44.8966 15.8972C45.0522 15.8513 45.1879 15.655 45.1184 15.4915C44.9661 15.1316 44.8106 14.7683 44.6584 14.4084C44.5889 14.2449 44.43 14.1338 44.248 14.1892C44.0924 14.2351 43.9567 14.4314 44.0262 14.595Z" fill="#46A358" fill-opacity="1.000000" fill-rule="nonzero"/>
		<path id="Vector" d="M43.1228 15.8022C43.0467 16.3059 43.0533 16.7869 43.1426 17.2842C43.2154 17.6965 43.8476 17.51 43.7781 17.0977C43.7119 16.7249 43.7119 16.3386 43.7681 15.9624C43.8244 15.5503 43.1823 15.3867 43.1228 15.8022Z" fill="#46A358" fill-opacity="1.000000" fill-rule="nonzero"/>
		<path id="Vector" d="M44.3804 17.6931C44.4929 18.0007 44.6021 18.3115 44.7146 18.6189C44.8569 19.0149 45.4924 18.8315 45.3501 18.4326C45.2375 18.125 45.1283 17.8142 45.0158 17.5066C44.8735 17.1108 44.2381 17.2939 44.3804 17.6931Z" fill="#46A358" fill-opacity="1.000000" fill-rule="nonzero"/>
		<path id="Vector" d="M42.8414 19.002C42.848 19.365 42.858 19.7283 42.8646 20.0913C42.8745 20.5134 43.5364 20.5002 43.5265 20.0784C43.5199 19.7151 43.5099 19.3521 43.5033 18.9888C43.4967 18.5667 42.8348 18.5798 42.8414 19.002Z" fill="#46A358" fill-opacity="1.000000" fill-rule="nonzero"/>
		<path id="Vector" d="M44.0825 20.2322C44.0891 20.5593 44.0957 20.8865 44.1024 21.2136C44.1123 21.6357 44.7742 21.6226 44.7643 21.2004C44.7576 20.8733 44.751 20.5461 44.7444 20.219C44.7345 19.7969 44.0726 19.8101 44.0825 20.2322Z" fill="#46A358" fill-opacity="1.000000" fill-rule="nonzero"/>
		<path id="Vector" d="M45.9325 20.8799C46.0649 21.2593 46.2006 21.6389 46.333 22.0183C46.472 22.4143 47.1074 22.231 46.9684 21.832C46.836 21.4524 46.7003 21.073 46.568 20.6934C46.429 20.2976 45.7935 20.4807 45.9325 20.8799Z" fill="#46A358" fill-opacity="1.000000" fill-rule="nonzero"/>
		<path id="Vector" d="M46.6573 24.1384C46.697 24.3379 46.74 24.5374 46.7798 24.7371C46.8162 24.9104 47.0313 25.0054 47.1901 24.9563C47.3755 24.9006 47.4483 24.7239 47.4119 24.5505C47.3722 24.3511 47.3291 24.1514 47.2894 23.9519C47.253 23.7783 47.0379 23.6836 46.879 23.7327C46.697 23.7849 46.6209 23.9648 46.6573 24.1384Z" fill="#46A358" fill-opacity="1.000000" fill-rule="nonzero"/>
		<path id="Vector" d="M44.8404 24.1743C44.9496 24.4819 45.029 24.7959 45.0654 25.1199C45.0853 25.2964 45.2144 25.4436 45.403 25.4404C45.5685 25.4373 45.7472 25.2834 45.7273 25.1067C45.6843 24.7239 45.6049 24.3511 45.4758 23.9878C45.3335 23.592 44.6981 23.7751 44.8404 24.1743Z" fill="#46A358" fill-opacity="1.000000" fill-rule="nonzero"/>
		<path id="Vector" d="M43.1426 22.8691C43.1492 23.1243 43.1526 23.3794 43.1592 23.6313C43.1691 24.0535 43.831 24.0403 43.8211 23.6182C43.8145 23.363 43.8111 23.1079 43.8045 22.856C43.7946 22.4338 43.136 22.447 43.1426 22.8691Z" fill="#46A358" fill-opacity="1.000000" fill-rule="nonzero"/>
		<path id="Vector" d="M43.9402 26.7788C43.9667 27.106 44.0295 27.4265 44.1388 27.7341C44.2811 28.1299 44.9165 27.9468 44.7742 27.5476C44.6815 27.2922 44.6219 27.0339 44.6021 26.7656C44.5723 26.3469 43.9104 26.3599 43.9402 26.7788Z" fill="#46A358" fill-opacity="1.000000" fill-rule="nonzero"/>
		<path id="Vector" d="M45.3897 29.563C45.4493 29.7627 45.5089 29.9622 45.5685 30.1584C45.6876 30.5608 46.323 30.3777 46.2039 29.9719C46.1443 29.7725 46.0847 29.5762 46.0252 29.3765C45.906 28.9741 45.2706 29.1572 45.3897 29.563Z" fill="#46A358" fill-opacity="1.000000" fill-rule="nonzero"/>
		<path id="Vector" d="M46.1675 27.0374C46.2072 27.1814 46.247 27.3252 46.2867 27.4724C46.3992 27.8782 47.0346 27.6917 46.9221 27.2859C46.8824 27.1421 46.8427 26.998 46.803 26.8508C46.6904 26.4451 46.055 26.6316 46.1675 27.0374Z" fill="#46A358" fill-opacity="1.000000" fill-rule="nonzero"/>
		<path id="Vector" d="M44.291 32.4778C44.3738 32.8018 44.4532 33.1289 44.5359 33.4529C44.6385 33.8618 45.2739 33.6753 45.1713 33.2664C45.0886 32.9424 45.0092 32.6152 44.9264 32.2915C44.8238 31.8826 44.1884 32.0688 44.291 32.4778Z" fill="#46A358" fill-opacity="1.000000" fill-rule="nonzero"/>
		<path id="Vector" d="M45.9358 37.2417C45.9954 37.3857 46.0517 37.5295 46.1112 37.6736C46.1774 37.8372 46.3396 37.9485 46.5216 37.8928C46.6805 37.8469 46.8095 37.6506 46.7433 37.4871C46.6838 37.343 46.6275 37.1992 46.5679 37.0552C46.5018 36.8916 46.3396 36.7805 46.1576 36.8359C45.9987 36.8818 45.8696 37.0781 45.9358 37.2417Z" fill="#46A358" fill-opacity="1.000000" fill-rule="nonzero"/>
		<path id="Vector" d="M67.4808 23.6836C67.3054 24.0337 67.1266 24.3804 66.9512 24.7305C66.7593 25.1067 67.3385 25.4275 67.5304 25.0479C67.7058 24.6978 67.8845 24.3511 68.0599 24.001C68.2519 23.6248 67.6727 23.3074 67.4808 23.6836Z" fill="#46A358" fill-opacity="1.000000" fill-rule="nonzero"/>
		<path id="Vector" d="M68.4074 24.5046C68.3247 24.8352 68.2387 25.1624 68.1559 25.4927C68.05 25.9019 68.6921 26.062 68.798 25.6531C68.8807 25.3228 68.9668 24.9956 69.0495 24.665C69.1521 24.2593 68.51 24.0991 68.4074 24.5046Z" fill="#46A358" fill-opacity="1.000000" fill-rule="nonzero"/>
		<path id="Vector" d="M67.5933 27.6328C67.5106 27.9075 67.4278 28.1824 67.3418 28.4573C67.2194 28.8628 67.8614 29.02 67.9838 28.6174C68.0666 28.3428 68.1493 28.0679 68.2354 27.793C68.3545 27.3906 67.7125 27.2302 67.5933 27.6328Z" fill="#46A358" fill-opacity="1.000000" fill-rule="nonzero"/>
		<path id="Vector" d="M67.0373 26.3076C66.9678 26.4351 66.895 26.5659 66.8255 26.6936C66.6203 27.0632 67.1995 27.384 67.4046 27.011C67.4742 26.8833 67.547 26.7524 67.6165 26.625C67.8216 26.2585 67.2425 25.938 67.0373 26.3076Z" fill="#46A358" fill-opacity="1.000000" fill-rule="nonzero"/>
		<path id="Vector" d="M68.6722 26.4646C68.6424 26.7197 68.6126 26.9751 68.5829 27.2302C68.563 27.4067 68.6325 27.5803 68.8211 27.6294C68.9767 27.6687 69.2017 27.5706 69.2249 27.3938C69.2547 27.1387 69.2845 26.8833 69.3143 26.6282C69.3341 26.4514 69.2646 26.2781 69.076 26.229C68.9171 26.1897 68.6921 26.2878 68.6722 26.4646Z" fill="#46A358" fill-opacity="1.000000" fill-rule="nonzero"/>
		<path id="Vector" d="M65.5547 28.1628C65.4885 28.3721 65.3892 28.5618 65.2701 28.7451C65.0384 29.0984 65.6175 29.4158 65.8492 29.0625C66.0014 28.8335 66.114 28.5847 66.1967 28.323C66.2497 28.1562 66.1239 27.9663 65.9584 27.9238C65.7731 27.8813 65.6076 27.9927 65.5547 28.1628Z" fill="#46A358" fill-opacity="1.000000" fill-rule="nonzero"/>
		<path id="Vector" d="M65.5348 30.9763C65.3924 31.2087 65.323 31.4736 65.3362 31.7451C65.356 32.1641 66.018 32.1543 65.9981 31.7322C65.9915 31.5686 66.0246 31.4343 66.1139 31.2971C66.3357 30.9338 65.7565 30.6165 65.5348 30.9763Z" fill="#46A358" fill-opacity="1.000000" fill-rule="nonzero"/>
		<path id="Vector" d="M67.2591 30.2566C67.1929 30.4758 67.1267 30.6982 67.0638 30.9175C66.9447 31.323 67.5867 31.4802 67.7058 31.0776C67.772 30.8584 67.8382 30.636 67.9011 30.4167C68.0202 30.0112 67.3782 29.854 67.2591 30.2566Z" fill="#46A358" fill-opacity="1.000000" fill-rule="nonzero"/>
		<path id="Vector" d="M66.713 33.4824C66.6435 33.7212 66.5773 33.9568 66.5078 34.1956C66.392 34.6013 67.034 34.7617 67.1499 34.356C67.2194 34.1172 67.2855 33.8816 67.355 33.6426C67.4709 33.2402 66.8288 33.0798 66.713 33.4824Z" fill="#46A358" fill-opacity="1.000000" fill-rule="nonzero"/>
		<path id="Vector" d="M68.8112 28.8367C68.7947 28.9839 68.7814 29.1279 68.7649 29.2751C68.745 29.4517 68.9403 29.5989 69.1025 29.5957C69.301 29.5925 69.4069 29.4387 69.4268 29.262C69.4433 29.1147 69.4566 28.9709 69.4731 28.8235C69.493 28.647 69.2977 28.4998 69.1356 28.5029C68.937 28.5095 68.8311 28.6599 68.8112 28.8367Z" fill="#46A358" fill-opacity="1.000000" fill-rule="nonzero"/>
		<path id="Vector" d="M64.6545 35.3799C64.6214 35.4912 64.585 35.5991 64.5519 35.7102C64.4261 36.1128 65.0682 36.2729 65.1939 35.8706C65.227 35.7593 65.2634 35.6514 65.2965 35.5403C65.4223 35.1377 64.7802 34.9807 64.6545 35.3799Z" fill="#46A358" fill-opacity="1.000000" fill-rule="nonzero"/>
		<path id="Vector" d="M64.1216 38.7205C64.0521 38.9036 63.9793 39.0869 63.9098 39.27C63.8469 39.4336 63.9892 39.6267 64.1481 39.6692C64.34 39.7183 64.4857 39.5972 64.5518 39.4336C64.6213 39.2505 64.6942 39.0671 64.7636 38.884C64.8265 38.7205 64.6842 38.5273 64.5254 38.4849C64.3334 38.4358 64.1878 38.5535 64.1216 38.7205Z" fill="#46A358" fill-opacity="1.000000" fill-rule="nonzero"/>
		<path id="Vector" d="M66.7262 37.3889C66.7295 37.4968 66.7295 37.6079 66.7328 37.7161C66.7427 38.1379 67.4046 38.125 67.3947 37.7029C67.3914 37.595 67.3914 37.4836 67.3881 37.3757C67.3782 36.9536 66.7163 36.9668 66.7262 37.3889Z" fill="#46A358" fill-opacity="1.000000" fill-rule="nonzero"/>
		<path id="Vector" d="M65.4918 41.7236C65.4752 41.8708 65.462 42.0149 65.4454 42.1621C65.4256 42.3386 65.6208 42.4861 65.783 42.4827C65.9816 42.4795 66.0875 42.3257 66.1073 42.1489C66.1239 42.0017 66.1371 41.8579 66.1537 41.7104C66.1735 41.5339 65.9783 41.3867 65.8161 41.3899C65.6208 41.3933 65.5116 41.5469 65.4918 41.7236Z" fill="#46A358" fill-opacity="1.000000" fill-rule="nonzero"/>
		<path id="Vector" d="M35.2593 28.0808C35.3156 28.2607 35.3752 28.4441 35.4314 28.624C35.5572 29.0264 36.1926 28.8398 36.0668 28.4375C36.0106 28.2576 35.951 28.0745 35.8948 27.8943C35.7657 27.4919 35.1303 27.6785 35.2593 28.0808Z" fill="#46A358" fill-opacity="1.000000" fill-rule="nonzero"/>
		<path id="Vector" d="M35.9411 27.3381C36.1628 27.6096 36.3879 27.8811 36.6096 28.1494C36.7221 28.2869 36.9637 28.2576 37.0762 28.1396C37.2119 27.999 37.1788 27.8157 37.0663 27.6785C36.8446 27.4067 36.6195 27.1353 36.3978 26.8669C36.2853 26.7295 36.0437 26.759 35.9312 26.8767C35.7955 27.0142 35.8286 27.2007 35.9411 27.3381Z" fill="#46A358" fill-opacity="1.000000" fill-rule="nonzero"/>
		<path id="Vector" d="M37.212 29.6416C37.4039 29.9099 37.5959 30.1782 37.7845 30.4431C38.0294 30.7866 38.5954 30.4463 38.3504 30.1028C38.1585 29.8345 37.9665 29.5664 37.7779 29.3013C37.5297 28.9578 36.9638 29.2947 37.212 29.6416Z" fill="#46A358" fill-opacity="1.000000" fill-rule="nonzero"/>
		<path id="Vector" d="M36.3978 30.4233C36.55 30.6753 36.7023 30.9272 36.8545 31.179C37.0729 31.5388 37.6389 31.1987 37.4204 30.8389C37.2682 30.5869 37.116 30.335 36.9637 30.083C36.742 29.72 36.1794 30.0601 36.3978 30.4233Z" fill="#46A358" fill-opacity="1.000000" fill-rule="nonzero"/>
		<path id="Vector" d="M37.8805 33.1226C38.0724 33.4629 38.2677 33.8032 38.4596 34.1433C38.6681 34.5098 39.2341 34.1697 39.0256 33.8032C38.8336 33.4629 38.6383 33.1226 38.4464 32.7825C38.2346 32.416 37.672 32.7561 37.8805 33.1226Z" fill="#46A358" fill-opacity="1.000000" fill-rule="nonzero"/>
		<path id="Vector" d="M38.4662 32.1311C38.5986 32.3274 38.731 32.5269 38.8634 32.7231C39.0984 33.0732 39.6643 32.7329 39.4293 32.3828C39.2969 32.1865 39.1646 31.9871 39.0322 31.7908C38.7939 31.4407 38.228 31.7776 38.4662 32.1311Z" fill="#46A358" fill-opacity="1.000000" fill-rule="nonzero"/>
		<path id="Vector" d="M38.7741 30.7571C38.8833 30.9893 39.0686 31.1692 39.2903 31.3C39.661 31.5127 39.982 30.9402 39.6114 30.7275C39.479 30.6523 39.3996 30.551 39.3367 30.4167C39.2606 30.2563 39.0223 30.2236 38.88 30.3088C38.7178 30.4102 38.6979 30.5967 38.7741 30.7571Z" fill="#46A358" fill-opacity="1.000000" fill-rule="nonzero"/>
		<path id="Vector" d="M36.2919 32.4746C36.335 32.6548 36.3747 32.8347 36.4177 33.0178C36.4574 33.1912 36.6659 33.2861 36.8281 33.2371C37.0101 33.1846 37.0895 33.0015 37.0498 32.8313C37.0068 32.6514 36.9671 32.4714 36.924 32.2883C36.8843 32.1147 36.6758 32.02 36.5137 32.0691C36.3316 32.1213 36.2522 32.3047 36.2919 32.4746Z" fill="#46A358" fill-opacity="1.000000" fill-rule="nonzero"/>
		<path id="Vector" d="M38.3802 35.8936C38.5325 36.2012 38.6847 36.5088 38.8336 36.813C38.9131 36.9731 39.148 37.0059 39.2903 36.9209C39.4558 36.8228 39.479 36.6296 39.3996 36.4695C39.2473 36.1619 39.0951 35.8542 38.9462 35.55C38.8667 35.3896 38.6317 35.3569 38.4894 35.4421C38.324 35.5435 38.3008 35.7366 38.3802 35.8936Z" fill="#46A358" fill-opacity="1.000000" fill-rule="nonzero"/>
		<path id="Vector" d="M40.8525 34.9678C40.9683 35.1838 41.0808 35.3997 41.1966 35.6157C41.3952 35.9885 41.9578 35.645 41.7626 35.2754C41.6467 35.0596 41.5342 34.8435 41.4184 34.6277C41.2165 34.2546 40.6539 34.595 40.8525 34.9678Z" fill="#46A358" fill-opacity="1.000000" fill-rule="nonzero"/>
		<path id="Vector" d="M41.607 39.6462C41.703 39.8262 41.799 40.0061 41.8982 40.1829C42.1001 40.5559 42.6627 40.2124 42.4642 39.8425C42.3682 39.6626 42.2722 39.4827 42.1729 39.3062C41.971 38.9331 41.4051 39.2734 41.607 39.6462Z" fill="#46A358" fill-opacity="1.000000" fill-rule="nonzero"/>
		<path id="Vector" d="M42.7819 37.9875C42.8944 38.1675 43.0103 38.3474 43.1228 38.5273C43.3478 38.884 43.9137 38.5437 43.6887 38.187C43.5762 38.0071 43.4603 37.8271 43.3478 37.6472C43.1195 37.2908 42.5535 37.6309 42.7819 37.9875Z" fill="#46A358" fill-opacity="1.000000" fill-rule="nonzero"/>
		<path id="Vector" d="M44.0991 43.0322C44.1917 43.1958 44.2877 43.3562 44.3804 43.5198C44.5922 43.8862 45.1548 43.5427 44.9463 43.1794C44.8537 43.0159 44.7577 42.8557 44.665 42.6921C44.4532 42.3257 43.8873 42.6658 44.0991 43.0322Z" fill="#46A358" fill-opacity="1.000000" fill-rule="nonzero"/>
		<path id="Vector" d="M33.4259 41.0107C33.6476 41.1155 33.8727 41.2168 34.0944 41.3215C34.4783 41.5015 34.8027 40.929 34.4154 40.749C34.1937 40.6443 33.9687 40.5427 33.7469 40.4382C33.3663 40.2615 33.042 40.8308 33.4259 41.0107Z" fill="#46A358" fill-opacity="1.000000" fill-rule="nonzero"/>
		<path id="Vector" d="M35.534 41.9626C35.7789 42.136 36.0238 42.3127 36.2654 42.4861C36.411 42.5908 36.6361 42.5024 36.7155 42.3584C36.8115 42.1882 36.7321 42.0183 36.5864 41.9136C36.3415 41.7402 36.0966 41.5635 35.855 41.3901C35.7094 41.2854 35.4844 41.3738 35.4049 41.5176C35.3123 41.6877 35.3917 41.8579 35.534 41.9626Z" fill="#46A358" fill-opacity="1.000000" fill-rule="nonzero"/>
		<path id="Vector" d="M35.2097 40.9617C35.3785 40.9976 35.534 41.0532 35.6863 41.1382C36.0602 41.3411 36.3813 40.7686 36.0073 40.5657C35.8087 40.4578 35.5936 40.376 35.3719 40.3269C34.9582 40.2354 34.7927 40.8699 35.2097 40.9617Z" fill="#46A358" fill-opacity="1.000000" fill-rule="nonzero"/>
		<path id="Vector" d="M37.1491 42.3584C37.298 42.4631 37.4469 42.571 37.5959 42.6758C37.7415 42.7771 37.9665 42.6921 38.046 42.5481C38.1419 42.3779 38.0625 42.2046 37.9169 42.1033C37.768 41.9985 37.619 41.8906 37.4701 41.7859C37.3245 41.6843 37.0994 41.7695 37.02 41.9133C36.9273 42.0835 37.0035 42.2537 37.1491 42.3584Z" fill="#46A358" fill-opacity="1.000000" fill-rule="nonzero"/>
		<path id="Vector" d="M37.1028 43.3367C37.1789 43.4446 37.255 43.5525 37.3311 43.6604C37.5727 44.0039 38.1387 43.667 37.8971 43.3203C37.8209 43.2122 37.7448 43.1042 37.6687 42.9963C37.4271 42.6494 36.8579 42.9897 37.1028 43.3367Z" fill="#46A358" fill-opacity="1.000000" fill-rule="nonzero"/>
		<path id="Vector" d="M38.602 43.8635C38.7509 43.9878 38.8998 44.1121 39.052 44.2363C39.1877 44.3508 39.3896 44.3606 39.5187 44.2266C39.6378 44.1055 39.6478 43.8765 39.5088 43.7654C39.3598 43.6409 39.2109 43.5166 39.0587 43.3923C38.923 43.2778 38.7211 43.2681 38.592 43.4021C38.4729 43.5198 38.463 43.749 38.602 43.8635Z" fill="#46A358" fill-opacity="1.000000" fill-rule="nonzero"/>
		<path id="Vector" d="M72.7628 34.2251C72.4086 34.1597 72.0578 34.1663 71.707 34.2546C71.2933 34.3594 71.482 34.9875 71.8957 34.8828C72.1273 34.8237 72.3623 34.814 72.5973 34.8599C73.0176 34.9385 73.1797 34.3037 72.7628 34.2251Z" fill="#46A358" fill-opacity="1.000000" fill-rule="nonzero"/>
		<path id="Vector" d="M70.4792 34.9023C70.3534 34.9973 70.2244 35.0889 70.0986 35.1836C69.9563 35.2883 69.8901 35.4717 69.9894 35.6353C70.0754 35.7759 70.3005 35.8511 70.4461 35.7432C70.5719 35.6482 70.7009 35.5566 70.8267 35.4619C70.969 35.3572 71.0352 35.1738 70.9359 35.0103C70.8499 34.8696 70.6248 34.7976 70.4792 34.9023Z" fill="#46A358" fill-opacity="1.000000" fill-rule="nonzero"/>
		<path id="Vector" d="M70.5851 34.5818C71.0121 34.5718 70.9988 33.9175 70.5719 33.9272C70.145 33.9373 70.1582 34.5916 70.5851 34.5818Z" fill="#46A358" fill-opacity="1.000000" fill-rule="nonzero"/>
	</g>
	<rect id="Frame" width="83.000000" height="40.000000" transform="translate(7.000000 45.000000)" fill="#FFFFFF" fill-opacity="0"/>
	<g clip-path="url(#clip5_1980)">
		<path id="Vector" d="M37.3859 47.6165C35.0447 53.6309 33.3971 59.9163 32.8568 66.3708C32.3966 71.8879 32.5367 77.8381 35.5583 82.6511C35.9051 83.2029 36.7589 82.6748 36.412 82.1196C33.3804 77.2932 33.3871 71.238 33.9141 65.7244C34.501 59.5811 36.1285 53.5938 38.3564 47.8669C38.5898 47.261 37.6193 47.0173 37.3859 47.6165Z" fill="#727272" fill-opacity="1.000000" fill-rule="nonzero"/>
		<path id="Vector" d="M67.7884 46.6855C73.1145 50.7471 73.1212 58.1934 73.6948 64.3062C73.9849 67.3894 74.3852 70.4832 74.5252 73.5801C74.6553 76.4097 74.4218 79.4153 72.214 81.4189C71.7338 81.8555 72.4575 82.5562 72.9344 82.123C74.8787 80.3596 75.4791 77.8345 75.5458 75.2725C75.6425 71.6238 75.0322 67.9141 74.692 64.2891C74.095 57.9192 74.0216 50.1819 68.4787 45.9543C67.9718 45.5652 67.2748 46.293 67.7884 46.6855Z" fill="#727272" fill-opacity="1.000000" fill-rule="nonzero"/>
		<path id="Vector" d="M35.7584 82.8542C38.5832 83.8865 41.4713 84.1438 44.4429 84.3975C47.7313 84.6785 51.0497 85.1016 54.3547 84.9832C57.7098 84.8647 61.0749 84.3806 64.41 84.0151C67.3282 83.6936 70.223 83.2874 72.9444 82.1096C73.5281 81.8557 73.2513 80.8774 72.6576 81.1348C69.8362 82.3567 66.8413 82.7356 63.8163 83.0605C60.668 83.3992 57.4997 83.856 54.3347 83.9678C51.2331 84.0793 48.1248 83.697 45.0365 83.4363C41.9583 83.1724 38.9367 82.9421 36.0052 81.8726C35.3982 81.6458 35.1581 82.6343 35.7584 82.8542Z" fill="#727272" fill-opacity="1.000000" fill-rule="nonzero"/>
		<path id="Vector" d="M37.626 48.1851C39.9538 49.1497 42.3318 50.0027 44.8431 50.304C47.4544 50.6152 50.1158 50.1685 52.7439 50.2363C54.2013 50.2734 55.512 50.4731 56.9827 50.26C58.2501 50.0737 59.5174 49.8167 60.748 49.4612C63.2994 48.7234 65.7706 47.6943 68.2753 46.8076C68.8789 46.5942 68.5988 45.6196 67.9885 45.8328C63.0859 47.5691 58.4902 49.5964 53.1974 49.2478C50.9963 49.1023 48.8051 49.4307 46.6107 49.4104C43.6558 49.3799 40.8143 48.4187 38.1062 47.2983C37.5226 47.0547 37.029 47.938 37.626 48.1851Z" fill="#727272" fill-opacity="1.000000" fill-rule="nonzero"/>
		<path id="Vector" d="M7.66366 51.2412C13.2666 52.1348 18.4793 54.8257 22.3847 59.0193C26.1633 63.0774 28.2878 68.4253 32.4099 72.1924C32.8868 72.6289 33.5839 71.8979 33.1036 71.4612C28.7347 67.4673 26.5502 61.6897 22.348 57.5369C18.4126 53.6477 13.3233 51.1194 7.91046 50.2563C7.27679 50.1548 7.02666 51.1396 7.66366 51.2412Z" fill="#727272" fill-opacity="1.000000" fill-rule="nonzero"/>
		<path id="Vector" d="M8.53746 49.4238C13.6235 48.2461 19.0296 48.9465 23.5987 51.5427C27.2439 53.614 30.2355 56.887 34.5877 57.3337C35.2281 57.3982 35.2014 56.3828 34.5677 56.3184C29.6852 55.8174 26.1633 51.353 21.761 49.5186C17.4688 47.7314 12.763 47.4065 8.25398 48.449C7.62365 48.5947 7.91047 49.5693 8.53746 49.4238Z" fill="#727272" fill-opacity="1.000000" fill-rule="nonzero"/>
		<path id="Vector" d="M7.72372 48.7437C7.34019 49.2783 7.09339 49.9045 7.00668 50.5576C6.96999 50.8318 7.08672 51.0994 7.3702 51.1738C7.60699 51.238 7.9405 51.0789 7.97718 50.8047C8.05389 50.2227 8.25733 49.7114 8.59751 49.2344C8.7576 49.011 8.61752 48.6692 8.40408 48.5439C8.14727 48.3982 7.88047 48.5234 7.72372 48.7437Z" fill="#727272" fill-opacity="1.000000" fill-rule="nonzero"/>
		<path id="Vector" d="M71.8105 49.6709C73.8782 45.6533 80.4483 45.1353 84.1569 46.9766C88.1757 48.9736 90.03 53.8103 88.3825 58.041C86.9484 61.7271 83.2631 63.531 80.2316 65.6565C78.9542 66.5535 77.5335 67.5623 76.6497 68.8855C75.7259 70.27 75.8459 72.03 74.9321 73.4109C74.5719 73.9558 75.4491 74.4431 75.8059 73.905C76.3829 73.0352 76.5496 72.1077 76.8064 71.1128C77.17 69.7217 77.897 68.8281 78.9409 67.9175C80.7385 66.3503 82.8463 65.2166 84.7606 63.812C88.149 61.3242 90.5269 57.7905 89.8966 53.3635C89.3196 49.3323 86.1246 45.9985 82.1792 45.2639C78.2038 44.5227 72.9644 45.2368 70.9334 49.1799C70.6366 49.7554 71.5103 50.2495 71.8105 49.6709Z" fill="#727272" fill-opacity="1.000000" fill-rule="nonzero"/>
		<path id="Vector" d="M72.8244 52.2263C74.2084 49.4238 77.3601 48.6995 80.2216 48.9229C82.1292 49.0718 83.3065 49.8335 84.3037 51.4954C85.4076 53.3298 85.3542 54.8833 84.7306 56.8396C83.7501 59.9062 81.9825 61.3276 79.2644 62.7661C77.4835 63.707 74.7654 64.9392 74.055 67.0208C73.8449 67.6401 74.8154 67.8838 75.0255 67.2712C75.6725 65.3757 78.8475 64.1438 80.4817 63.2671C81.8991 62.509 83.2265 61.6729 84.1836 60.3359C85.6978 58.2239 86.9417 54.7749 85.8445 52.2737C84.5038 49.2141 82.4527 47.8567 79.1777 47.8804C76.2628 47.9006 73.3246 48.9568 71.9539 51.7322C71.6638 52.3145 72.5376 52.8086 72.8244 52.2263Z" fill="#727272" fill-opacity="1.000000" fill-rule="nonzero"/>
		<path id="Vector" d="M54.308 59.571C51.3665 60.0144 48.8819 62.2349 48.585 65.3386C48.3016 68.2969 50.2692 72.1484 53.611 71.9219C56.6593 71.7153 59.3673 68.7166 59.6475 65.7178C59.9576 62.4177 57.5197 59.5405 54.208 59.6863C53.5643 59.7134 53.5843 60.7288 54.228 60.7017C57.1328 60.573 59.1339 63.2671 58.5903 66.1035C58.15 68.3984 55.9689 70.7134 53.591 70.9097C50.6695 71.1501 49.1787 67.3965 49.6423 64.9595C50.0858 62.624 52.0569 60.9316 54.328 60.5898C54.955 60.4917 54.945 59.4729 54.308 59.571Z" fill="#727272" fill-opacity="1.000000" fill-rule="nonzero"/>
		<path id="Vector" d="M54.8817 60.0144C54.7049 57.8618 58.0366 54.5889 59.7042 57.0801C60.2211 57.8518 60.7214 59.2224 60.5079 60.1736C60.2778 61.1924 59.294 61.9539 58.5402 62.5801C58.0433 62.9929 58.7704 63.6936 59.2606 63.2842C60.4479 62.2991 61.6685 61.1179 61.5552 59.429C61.4618 58.0481 60.708 56.2271 59.5208 55.469C56.9861 53.8477 53.6777 57.5605 53.8811 60.0381C53.9345 60.6846 54.935 60.6677 54.8817 60.0144Z" fill="#727272" fill-opacity="1.000000" fill-rule="nonzero"/>
		<path id="Vector" d="M59.5274 63.511C60.7814 62.7561 64.0265 62.9558 63.6896 65.1355C63.3695 67.2136 60.7181 67.2983 59.1472 67.3186C58.5036 67.3254 58.5236 68.3408 59.1673 68.334C61.3717 68.3069 65.2271 67.603 64.6768 64.4382C64.2432 61.9539 60.7881 61.5681 59.0038 62.6443C58.4502 62.9795 58.9705 63.8459 59.5274 63.511Z" fill="#727272" fill-opacity="1.000000" fill-rule="nonzero"/>
		<path id="Vector" d="M58.5202 68.52C60.2745 69.3054 62.2488 71.6375 60.5813 73.5193C58.6303 75.7192 55.8088 73.543 55.0884 71.4207C54.8783 70.8047 53.9178 71.0891 54.1279 71.7119C55.0618 74.4534 58.4268 76.8228 61.0215 74.4973C63.5429 72.2397 61.5385 68.7671 59.0072 67.6299C58.4235 67.3694 57.9333 68.2561 58.5202 68.52Z" fill="#727272" fill-opacity="1.000000" fill-rule="nonzero"/>
		<path id="Vector" d="M53.6477 71.6746C53.7377 73.3804 53.2675 75.9189 51.0063 75.6143C49.9791 75.4756 49.1887 74.5381 49.2354 73.4753C49.2754 72.5208 49.9391 71.4072 50.3026 70.5339C50.5494 69.9382 49.679 69.4373 49.4288 70.0398C48.8986 71.3191 47.9781 72.8118 48.3182 74.2571C48.5951 75.4282 49.5055 76.3589 50.6728 76.5925C53.651 77.1917 54.775 74.0742 54.6482 71.6509C54.6149 71.001 53.6143 71.0181 53.6477 71.6746Z" fill="#727272" fill-opacity="1.000000" fill-rule="nonzero"/>
		<path id="Vector" d="M50.1659 69.2715C48.3016 70.0535 45.4234 69.8538 44.7731 67.481C44.4896 66.4385 44.8064 65.2065 45.7703 64.6414C46.7074 64.093 47.9181 64.2385 48.9386 64.3638C49.5689 64.4417 49.8224 63.4565 49.1854 63.3789C47.7713 63.2063 46.1671 63.054 44.9498 63.9746C43.9393 64.7395 43.5291 66.0798 43.7225 67.3152C44.2228 70.5068 47.9014 71.3091 50.4494 70.2429C51.043 69.9993 50.7629 69.021 50.1659 69.2715Z" fill="#727272" fill-opacity="1.000000" fill-rule="nonzero"/>
		<path id="Vector" d="M49.5456 63.4939C47.8613 62.5801 46.9809 59.2224 48.4583 57.7705C50.3993 55.8647 52.7839 58.5659 53.9579 60.0281C54.3647 60.5322 55.0518 59.7979 54.6516 59.2969C53.1174 57.3879 49.799 54.467 47.5312 57.2188C45.8636 59.2461 46.8608 63.1892 49.0586 64.384C49.6256 64.6921 50.1159 63.8052 49.5456 63.4939Z" fill="#727272" fill-opacity="1.000000" fill-rule="nonzero"/>
		<path id="Vector" d="M51.153 70.957C50.3626 71.7288 49.849 73.8171 51.063 74.4502C52.5171 75.2117 53.1608 72.6223 53.3542 71.6882C53.4409 71.2617 52.7939 71.0959 52.7072 71.5225C52.6205 71.9456 52.5104 72.3618 52.357 72.7678C52.2803 72.9675 52.1969 73.1672 52.0969 73.3569C51.9435 73.6514 51.8534 73.8408 51.4999 73.8003C50.5461 73.6819 51.1997 71.8506 51.6366 71.4275C51.9435 71.123 51.4632 70.656 51.153 70.957Z" fill="#727272" fill-opacity="1.000000" fill-rule="nonzero"/>
		<path id="Vector" d="M55.452 71.0044C55.2819 71.979 56.3691 72.7439 57.1462 73.0925C57.9333 73.4446 59.0305 73.563 59.7676 73.0115C60.4713 72.4834 60.3612 71.5256 60.0577 70.7944C59.6442 69.7993 58.7937 69.1292 57.8099 68.7771C57.403 68.6316 57.2429 69.2917 57.6465 69.4338C58.2401 69.647 58.7737 70.0059 59.1506 70.5271C59.2806 70.7097 59.3807 70.9028 59.4641 71.1125C59.6575 71.6067 59.6875 71.8301 59.344 72.26C59.0505 72.6255 58.8971 72.7102 58.4502 72.7136C58.1701 72.7136 57.8799 72.656 57.6164 72.5613C57.2129 72.4158 55.9956 71.7727 56.099 71.177C56.1724 70.7437 55.5287 70.5745 55.452 71.0044Z" fill="#727272" fill-opacity="1.000000" fill-rule="nonzero"/>
		<path id="Vector" d="M59.3207 66.6248C60.1578 66.8381 60.9915 66.4724 61.6952 66.0225C62.2088 65.6941 62.8859 65.095 62.8258 64.4011C62.7758 63.8223 62.2088 63.5481 61.7019 63.4873C60.8281 63.3789 59.971 63.7615 59.2606 64.2419C58.9038 64.4824 59.2506 65.0645 59.6075 64.8208C59.9777 64.5669 60.3712 64.3435 60.8081 64.2319C61.2117 64.127 62.3856 63.9578 62.0287 64.8074C61.7152 65.562 60.1945 66.1477 59.4841 65.9683C59.0672 65.8633 58.9038 66.52 59.3207 66.6248Z" fill="#727272" fill-opacity="1.000000" fill-rule="nonzero"/>
		<path id="Vector" d="M56.209 60.3057C56.1556 59.7913 56.2624 59.28 56.6292 58.9009C56.896 58.6201 57.543 58.2478 57.9232 58.4644C58.2601 58.6572 58.2367 59.4697 58.2367 59.8452C58.2334 60.3835 58.12 60.8945 57.9432 61.3989C57.7998 61.8083 58.4468 61.9709 58.5903 61.5647C58.8771 60.7456 58.9771 59.886 58.8404 59.0229C58.747 58.4304 58.6469 57.8416 57.9899 57.7537C56.5358 57.554 55.4053 58.9248 55.5487 60.3225C55.5853 60.749 56.2524 60.7388 56.209 60.3057Z" fill="#727272" fill-opacity="1.000000" fill-rule="nonzero"/>
		<path id="Vector" d="M50.0158 62.5698C49.4988 61.9097 49.0553 60.7117 49.2287 59.8621C49.3321 59.3477 49.4522 59.1987 49.9791 59.1445C50.506 59.0903 50.6361 59.2493 51.0163 59.5608C51.4032 59.8755 51.78 60.2004 52.1636 60.5186C52.4937 60.7927 52.9573 60.3088 52.6238 60.0312C51.6833 59.2461 50.1725 57.4353 48.9752 58.8127C48.0481 59.8823 48.6717 61.9402 49.4455 62.925C49.709 63.2603 50.2826 62.9116 50.0158 62.5698Z" fill="#727272" fill-opacity="1.000000" fill-rule="nonzero"/>
		<path id="Vector" d="M48.8185 65.2065C47.5178 64.6785 45.8203 65.853 46.0204 67.3354C46.2072 68.74 48.4383 69.2612 49.4422 68.4692C49.7757 68.2053 49.4322 67.623 49.0953 67.8906C48.5484 68.3237 47.1877 68.2087 46.7875 67.5623C46.2005 66.6248 47.6312 65.4434 48.4984 65.7988C48.8886 65.9578 49.2154 65.3689 48.8185 65.2065Z" fill="#727272" fill-opacity="1.000000" fill-rule="nonzero"/>
	</g>
</svg>
