<svg width="16" height="16" viewBox="0 0 16 16" fill="none" xmlns="http://www.w3.org/2000/svg" xmlns:xlink="http://www.w3.org/1999/xlink">
	<path id="Instagram" d="M8 1.46655C10.1333 1.46655 10.4 1.46655 11.2667 1.53345C13.4667 1.6001 14.4667 2.66675 14.5333 4.80005C14.6 5.66675 14.6 5.8667 14.6 8C14.6 10.1333 14.6 10.3999 14.5333 11.2C14.4667 13.3333 13.4 14.3999 11.2667 14.4666C10.4 14.5334 10.2 14.5334 8 14.5334C5.86667 14.5334 5.60001 14.5334 4.79999 14.4666C2.60001 14.3999 1.60001 13.3333 1.53333 11.2C1.46667 10.3333 1.46667 10.1333 1.46667 8C1.46667 5.8667 1.46667 5.6001 1.53333 4.80005C1.60001 2.66675 2.66666 1.6001 4.79999 1.53345C5.60001 1.46655 5.86667 1.46655 8 1.46655ZM8 0C5.79999 0 5.53333 0 4.73334 0.0666504C1.79999 0.199951 0.200012 1.80005 0.0666809 4.7334C0 5.53345 0 5.80005 0 8C0 10.2 0 10.4666 0.0666809 11.2666C0.200012 14.2 1.79999 15.8 4.73334 15.9333C5.53333 16 5.79999 16 8 16C10.2 16 10.4667 16 11.2667 15.9333C14.2 15.8 15.8 14.2 15.9333 11.2666C16 10.4666 16 10.2 16 8C16 5.80005 16 5.53345 15.9333 4.7334C15.8 1.80005 14.2 0.199951 11.2667 0.0666504C10.4667 0 10.2 0 8 0ZM8 3.8667C5.73334 3.8667 3.86667 5.7334 3.86667 8C3.86667 10.2666 5.73334 12.1333 8 12.1333C10.2667 12.1333 12.1333 10.2666 12.1333 8C12.1333 5.7334 10.2667 3.8667 8 3.8667ZM8 10.6667C6.53333 10.6667 5.33334 9.46655 5.33334 8C5.33334 6.53345 6.53333 5.33325 8 5.33325C9.46667 5.33325 10.6667 6.53345 10.6667 8C10.6667 9.46655 9.46667 10.6667 8 10.6667ZM12.2667 2.80005C11.7333 2.80005 11.3333 3.19995 11.3333 3.7334C11.3333 4.2666 11.7333 4.66675 12.2667 4.66675C12.8 4.66675 13.2 4.2666 13.2 3.7334C13.2 3.19995 12.8 2.80005 12.2667 2.80005Z" fill="#46A358" fill-opacity="0.600000" fill-rule="nonzero"/>
</svg>
