<svg width="16" height="15" viewBox="0 0 16 15.3333" fill="none" xmlns="http://www.w3.org/2000/svg" xmlns:xlink="http://www.w3.org/1999/xlink">
	<path id="Linkedin" d="M3.33334 1.66675C3.33334 2.6001 2.60001 3.33325 1.66666 3.33325C0.733337 3.33325 0 2.6001 0 1.66675C0 0.733398 0.733337 0 1.66666 0C2.60001 0 3.33334 0.733398 3.33334 1.66675ZM3.33334 4.66675L0 4.66675L0 15.3333L3.33334 15.3333L3.33334 4.66675ZM8.66666 4.66675L5.33334 4.66675L5.33334 15.3333L8.66666 15.3333L8.66666 9.7334C8.66666 6.6001 12.6667 6.33325 12.6667 9.7334L12.6667 15.3333L16 15.3333L16 8.6001C16 3.33325 10.0667 3.53345 8.66666 6.1333L8.66666 4.66675Z" fill="#46A358" fill-opacity="0.600000" fill-rule="nonzero"/>
</svg>
