<svg width="16" height="13" viewBox="0 0 16 13.0037" fill="none" xmlns="http://www.w3.org/2000/svg" xmlns:xlink="http://www.w3.org/1999/xlink">
	<path id="Twitter" d="M5.03186 13.0037C11.0699 13.0037 14.3719 8.00122 14.3719 3.66357C14.3719 3.52148 14.3689 3.38013 14.3624 3.23926C15.0033 2.77588 15.5605 2.19751 16 1.53955C15.4118 1.80078 14.7789 1.97681 14.1149 2.05615C14.7926 1.6499 15.313 1.00659 15.5585 0.240234C14.9242 0.616455 14.2217 0.889648 13.4742 1.03711C12.8749 0.39917 12.0218 0 11.0779 0C9.26483 0 7.79465 1.47021 7.79465 3.28223C7.79465 3.54004 7.82358 3.79053 7.87961 4.03076C5.15161 3.8938 2.73239 2.5874 1.11353 0.601318C0.831268 1.08618 0.668762 1.6499 0.668762 2.25098C0.668762 3.38989 1.24835 4.39526 2.12967 4.98364C1.59122 4.96704 1.08533 4.81885 0.642914 4.573C0.642212 4.58667 0.642212 4.60034 0.642212 4.61475C0.642212 6.20459 1.77393 7.53198 3.27579 7.83276C3.00009 7.90796 2.71002 7.94849 2.41046 7.94849C2.19901 7.94849 1.99338 7.92725 1.7934 7.88916C2.21121 9.19336 3.42319 10.1426 4.86008 10.1692C3.73636 11.0498 2.32095 11.5745 0.783051 11.5745C0.51828 11.5745 0.256958 11.5593 0 11.5291C1.45273 12.46 3.1777 13.0037 5.03186 13.0037Z" fill="#46A358" fill-opacity="0.600000" fill-rule="nonzero"/>
</svg>
