<svg width="15.000000" height="14.000000" viewBox="0 0 15 14" fill="none" xmlns="http://www.w3.org/2000/svg" xmlns:xlink="http://www.w3.org/1999/xlink">
	<path id="Vector" d="M7.5 13.34C7.28 13.34 7.08 13.26 6.91 13.12C6.31 12.59 5.72 12.09 5.21 11.66L5.21 11.65C3.7 10.37 2.39 9.25 1.48 8.16C0.47 6.93 0 5.77 0 4.5C0 3.27 0.42 2.13 1.19 1.3C1.96 0.46 3.03 0 4.19 0C5.05 0 5.84 0.27 6.54 0.81C6.89 1.08 7.21 1.41 7.5 1.8C7.78 1.41 8.1 1.08 8.45 0.81C9.15 0.27 9.94 0 10.8 0C11.96 0 13.03 0.46 13.81 1.3C14.57 2.13 15 3.27 15 4.5C15 5.77 14.52 6.93 13.51 8.16C12.6 9.25 11.29 10.37 9.78 11.65C9.27 12.09 8.68 12.59 8.08 13.12C7.91 13.26 7.71 13.34 7.5 13.34ZM4.19 0.87C3.28 0.87 2.44 1.24 1.83 1.9C1.21 2.57 0.87 3.49 0.87 4.5C0.87 5.57 1.27 6.52 2.16 7.6C3.02 8.63 4.3 9.72 5.78 10.98L5.78 10.99C6.3 11.43 6.88 11.93 7.49 12.46C8.11 11.93 8.7 11.43 9.21 10.98C10.69 9.72 11.97 8.63 12.83 7.6C13.72 6.52 14.12 5.57 14.12 4.5C14.12 3.49 13.78 2.57 13.16 1.9C12.55 1.24 11.71 0.87 10.8 0.87C10.14 0.87 9.53 1.09 8.99 1.5C8.5 1.88 8.17 2.35 7.97 2.68C7.87 2.85 7.69 2.95 7.5 2.95C7.3 2.95 7.12 2.85 7.02 2.68C6.82 2.35 6.49 1.88 6 1.5C5.46 1.09 4.85 0.87 4.19 0.87Z" fill="#46A358" fill-opacity="1.000000" fill-rule="nonzero"/>
</svg>
